M48
; DRILL file {KiCad (6.0.5-0)} date Saturday, July 23, 2022 at 11:30:26 AM
; FORMAT={-:-/ absolute / inch / decimal}
; #@! TF.CreationDate,2022-07-23T11:30:26-07:00
; #@! TF.GenerationSoftware,Kicad,Pcbnew,(6.0.5-0)
; #@! TF.FileFunction,MixedPlating,1,2
FMAT,2
INCH
; #@! TA.AperFunction,Plated,PTH,ViaDrill
T1C0.0160
; #@! TA.AperFunction,Plated,PTH,ComponentDrill
T2C0.0300
; #@! TA.AperFunction,Plated,PTH,ComponentDrill
T3C0.0315
; #@! TA.AperFunction,Plated,PTH,ComponentDrill
T4C0.0354
; #@! TA.AperFunction,Plated,PTH,ComponentDrill
T5C0.0394
; #@! TA.AperFunction,Plated,PTH,ComponentDrill
T6C0.0591
; #@! TA.AperFunction,NonPlated,NPTH,ComponentDrill
T7C0.1260
%
G90
G05
T1
X0.4Y1.1
X0.8Y2.5
X0.8Y2.4
X0.8Y2.2
X0.9Y2.6
X0.9Y2.3
X0.997Y1.7426
X1.0Y2.1
X1.1Y2.8
X1.1Y1.9
X1.2Y2.578
X1.2Y2.1
X1.328Y2.1008
X1.4Y2.7
X1.4Y2.478
X1.4342Y2.678
X2.0Y3.4
X2.2Y3.4
X2.2Y2.6
X2.2Y2.3
X2.2Y1.0
X2.328Y1.0
X2.6Y1.9
X2.7Y3.2
X2.8Y2.3
X2.8198Y1.8802
X2.9Y3.1
X2.9364Y1.4364
X3.1Y2.872
X3.1Y2.172
X3.1Y1.3
X3.2Y2.3
X3.2Y1.6
X3.2Y1.3
X3.2Y1.2
X3.2Y0.3
X3.2Y0.2
X3.2787Y1.072
X3.4Y1.8
X3.4Y1.2
X3.4815Y2.8915
X3.5Y1.2
X3.9Y3.4
X4.1Y3.4
X4.3Y2.0
X4.3Y0.3
X4.5Y2.0
X4.6Y1.428
X4.7Y1.4
X4.9698Y1.4698
X5.4Y0.6
T2
X0.6276Y2.85
X0.6276Y2.75
X0.6276Y2.65
X0.6276Y2.55
X0.6276Y2.45
X0.6276Y2.35
X0.6276Y2.25
X0.6276Y2.15
X1.5724Y2.85
X1.5724Y2.75
X1.5724Y2.65
X1.5724Y2.55
X1.5724Y2.45
X1.5724Y2.35
X1.5724Y2.25
X1.5724Y2.15
T3
X0.5Y1.6504
X0.5Y1.3504
X0.6Y1.6504
X0.6Y1.3504
X0.7Y1.6504
X0.7Y1.3504
X0.8Y1.6504
X0.8Y1.3504
X0.9Y1.6504
X0.9Y1.3504
X1.0Y1.6504
X1.0Y1.3504
X1.1Y1.6504
X1.1Y1.3504
X1.2Y1.6504
X1.2Y1.3504
X1.3Y1.6504
X1.3Y1.3504
X1.4Y1.6504
X1.4Y1.3504
X1.5Y1.6504
X1.5Y1.3504
X1.6Y1.6504
X1.6Y1.3504
X2.3Y2.7496
X2.3Y2.4496
X2.4Y2.7496
X2.4Y2.4496
X2.4502Y0.9496
X2.4502Y0.6496
X2.5Y2.7496
X2.5Y2.4496
X2.5502Y0.9496
X2.5502Y0.6496
X2.6Y2.7496
X2.6Y2.4496
X2.6502Y0.9496
X2.6502Y0.6496
X2.7Y2.7496
X2.7Y2.4496
X2.7502Y0.9496
X2.7502Y0.6496
X2.8Y2.7496
X2.8Y2.4496
X2.8502Y0.9496
X2.8502Y0.6496
X2.9Y2.7496
X2.9Y2.4496
X2.9502Y0.9496
X2.9502Y0.6496
X3.0Y2.7496
X3.0Y2.4496
X3.0502Y0.9496
X3.0502Y0.6496
X3.1Y2.7496
X3.1Y2.4496
X3.1502Y0.9496
X3.1502Y0.6496
X3.2Y2.7496
X3.2Y2.4496
X3.2502Y0.9496
X3.2502Y0.6496
X3.3Y2.7496
X3.3Y2.4496
X3.3502Y0.9496
X3.3502Y0.6496
X3.4Y2.7496
X3.4Y2.4496
X3.4502Y0.9496
X3.4502Y0.6496
X3.5Y2.7496
X3.5Y2.4496
X3.5502Y0.9496
X3.5502Y0.6496
X3.6Y2.7496
X3.6Y2.4496
X4.5504Y1.8496
X4.5504Y1.7496
X4.5504Y1.6496
X4.5504Y1.5496
X4.8504Y1.8496
X4.8504Y1.7496
X4.8504Y1.6496
X4.8504Y1.5496
T4
X2.6Y2.0
X2.6Y1.4
X2.7Y2.0
X2.7Y1.4
X2.8Y2.0
X2.8Y1.4
X2.9Y2.0
X2.9Y1.4
X3.0Y2.0
X3.0Y1.4
X3.1Y2.0
X3.1Y1.4
X3.2Y2.0
X3.2Y1.4
T5
X3.4Y3.3
X3.4Y3.2
X3.4Y3.1
X3.5Y3.3
X3.5Y3.2
X3.5Y3.1
X5.2Y2.65
X5.2Y2.55
X5.2Y2.45
X5.2Y2.35
X5.2Y2.25
X5.2Y2.15
T6
X0.6428Y0.7
X1.4495Y0.7
T7
X0.2465Y3.3378
X0.2465Y0.1882
X5.3646Y3.3378
X5.3646Y0.1882
T5
G00X4.2409Y0.4898
M15
G01X4.1622Y0.4898
M16
G05
G00X4.3866Y0.3913
M15
G01X4.3079Y0.3913
M16
G05
G00X4.4378Y0.5508
M15
G01X4.4378Y0.6492
M16
G05
T0
M30
