%TF.GenerationSoftware,KiCad,Pcbnew,(6.0.5-0)*%
%TF.CreationDate,2022-07-18T19:56:44-07:00*%
%TF.ProjectId,MartincitoClock,4d617274-696e-4636-9974-6f436c6f636b,rev?*%
%TF.SameCoordinates,PX4b17a20PY8a12ae0*%
%TF.FileFunction,Paste,Top*%
%TF.FilePolarity,Positive*%
%FSLAX46Y46*%
G04 Gerber Fmt 4.6, Leading zero omitted, Abs format (unit mm)*
G04 Created by KiCad (PCBNEW (6.0.5-0)) date 2022-07-18 19:56:44*
%MOMM*%
%LPD*%
G01*
G04 APERTURE LIST*
G04 Aperture macros list*
%AMRoundRect*
0 Rectangle with rounded corners*
0 $1 Rounding radius*
0 $2 $3 $4 $5 $6 $7 $8 $9 X,Y pos of 4 corners*
0 Add a 4 corners polygon primitive as box body*
4,1,4,$2,$3,$4,$5,$6,$7,$8,$9,$2,$3,0*
0 Add four circle primitives for the rounded corners*
1,1,$1+$1,$2,$3*
1,1,$1+$1,$4,$5*
1,1,$1+$1,$6,$7*
1,1,$1+$1,$8,$9*
0 Add four rect primitives between the rounded corners*
20,1,$1+$1,$2,$3,$4,$5,0*
20,1,$1+$1,$4,$5,$6,$7,0*
20,1,$1+$1,$6,$7,$8,$9,0*
20,1,$1+$1,$8,$9,$2,$3,0*%
G04 Aperture macros list end*
%ADD10R,1.150000X1.400000*%
%ADD11RoundRect,0.150000X-0.825000X-0.150000X0.825000X-0.150000X0.825000X0.150000X-0.825000X0.150000X0*%
%ADD12R,1.400000X1.150000*%
%ADD13RoundRect,0.243750X-0.243750X-0.456250X0.243750X-0.456250X0.243750X0.456250X-0.243750X0.456250X0*%
%ADD14R,1.800000X1.000000*%
%ADD15R,1.000000X1.800000*%
%ADD16R,2.750000X3.050000*%
%ADD17R,1.200000X2.200000*%
%ADD18R,1.600000X1.400000*%
G04 APERTURE END LIST*
D10*
%TO.C,C6*%
X112610000Y63500000D03*
X110910000Y63500000D03*
%TD*%
D11*
%TO.C,U10*%
X127065000Y42545000D03*
X127065000Y41275000D03*
X127065000Y40005000D03*
X127065000Y38735000D03*
X132015000Y38735000D03*
X132015000Y40005000D03*
X132015000Y41275000D03*
X132015000Y42545000D03*
%TD*%
D10*
%TO.C,R20*%
X79590000Y76200000D03*
X77890000Y76200000D03*
%TD*%
%TO.C,C16*%
X77890000Y5080000D03*
X79590000Y5080000D03*
%TD*%
%TO.C,C15*%
X24550000Y45720000D03*
X26250000Y45720000D03*
%TD*%
D12*
%TO.C,R7*%
X104140000Y61810000D03*
X104140000Y60110000D03*
%TD*%
D10*
%TO.C,C2*%
X70270000Y55880000D03*
X71970000Y55880000D03*
%TD*%
D12*
%TO.C,R2*%
X53340000Y70270000D03*
X53340000Y71970000D03*
%TD*%
D10*
%TO.C,C9*%
X77890000Y58420000D03*
X79590000Y58420000D03*
%TD*%
D13*
%TO.C,D1*%
X72722500Y76200000D03*
X74597500Y76200000D03*
%TD*%
D14*
%TO.C,Y2*%
X111760000Y44470000D03*
X111760000Y46970000D03*
%TD*%
D10*
%TO.C,C7*%
X71970000Y78740000D03*
X70270000Y78740000D03*
%TD*%
D15*
%TO.C,Y1*%
X69830000Y73660000D03*
X67330000Y73660000D03*
%TD*%
D10*
%TO.C,C14*%
X24550000Y48260000D03*
X26250000Y48260000D03*
%TD*%
D12*
%TO.C,R6*%
X101600000Y49110000D03*
X101600000Y47410000D03*
%TD*%
%TO.C,C8*%
X66040000Y79590000D03*
X66040000Y77890000D03*
%TD*%
D10*
%TO.C,R21*%
X77050000Y10160000D03*
X75350000Y10160000D03*
%TD*%
D16*
%TO.C,U2*%
X125985000Y12275000D03*
X122935000Y12275000D03*
X125985000Y8925000D03*
X122935000Y8925000D03*
D17*
X126740000Y16900000D03*
X122180000Y16900000D03*
%TD*%
D12*
%TO.C,R1*%
X93980000Y79590000D03*
X93980000Y77890000D03*
%TD*%
D18*
%TO.C,SW1*%
X115760000Y58130000D03*
X107760000Y58130000D03*
X115760000Y53630000D03*
X107760000Y53630000D03*
%TD*%
D12*
%TO.C,R17*%
X132080000Y34710000D03*
X132080000Y36410000D03*
%TD*%
D10*
%TO.C,C17*%
X77890000Y7620000D03*
X79590000Y7620000D03*
%TD*%
D18*
%TO.C,SW2*%
X105600000Y83530000D03*
X97600000Y83530000D03*
X105600000Y79030000D03*
X97600000Y79030000D03*
%TD*%
D10*
%TO.C,R5*%
X104990000Y55880000D03*
X103290000Y55880000D03*
%TD*%
%TO.C,R13*%
X112610000Y71120000D03*
X110910000Y71120000D03*
%TD*%
D18*
%TO.C,SW3*%
X57340000Y83530000D03*
X49340000Y83530000D03*
X57340000Y79030000D03*
X49340000Y79030000D03*
%TD*%
D12*
%TO.C,C12*%
X134620000Y14390000D03*
X134620000Y16090000D03*
%TD*%
%TO.C,C1*%
X116840000Y11850000D03*
X116840000Y13550000D03*
%TD*%
D10*
%TO.C,R12*%
X112610000Y68580000D03*
X110910000Y68580000D03*
%TD*%
%TO.C,R10*%
X16930000Y30480000D03*
X18630000Y30480000D03*
%TD*%
D12*
%TO.C,R16*%
X137160000Y44030000D03*
X137160000Y42330000D03*
%TD*%
M02*
