M48
; DRILL file {KiCad (6.0.5-0)} date Monday, July 18, 2022 at 07:57:51 PM
; FORMAT={-:-/ absolute / inch / decimal}
; #@! TF.CreationDate,2022-07-18T19:57:51-07:00
; #@! TF.GenerationSoftware,Kicad,Pcbnew,(6.0.5-0)
; #@! TF.FileFunction,MixedPlating,1,2
FMAT,2
INCH
; #@! TA.AperFunction,Plated,PTH,ViaDrill
T1C0.0160
; #@! TA.AperFunction,Plated,PTH,ComponentDrill
T2C0.0300
; #@! TA.AperFunction,Plated,PTH,ComponentDrill
T3C0.0315
; #@! TA.AperFunction,Plated,PTH,ComponentDrill
T4C0.0354
; #@! TA.AperFunction,Plated,PTH,ComponentDrill
T5C0.0394
; #@! TA.AperFunction,Plated,PTH,ComponentDrill
T6C0.0591
; #@! TA.AperFunction,NonPlated,NPTH,ComponentDrill
T7C0.1260
%
G90
G05
T1
X0.356Y1.6
X0.4Y1.5
X0.5Y2.4
X0.5Y1.5949
X0.6Y1.5
X0.672Y2.2
X0.672Y2.0
X0.672Y1.9
X0.7Y1.472
X0.728Y1.9
X0.772Y2.1
X0.772Y2.0
X0.8Y1.5949
X0.828Y2.4
X0.9Y2.2
X0.9Y2.0
X0.9Y1.8
X0.9Y1.556
X0.9Y1.2
X0.945Y1.445
X0.9554Y1.1554
X0.9802Y2.1198
X0.997Y1.7426
X1.0Y2.0
X1.0Y1.2949
X1.0Y1.128
X1.0802Y2.2198
X1.1Y2.0
X1.1Y1.5
X1.1Y1.0
X1.128Y1.4
X1.2Y2.4
X1.2Y2.1
X1.2Y1.8
X1.2198Y1.9198
X1.272Y2.3
X1.272Y1.8
X1.272Y1.3
X1.272Y0.9
X1.3337Y2.3717
X1.4Y2.3
X1.4Y1.8
X1.4Y1.5
X1.445Y1.445
X1.5Y1.2949
X1.5Y1.1
X1.7Y0.9
X1.8Y2.2
X1.8Y2.0
X1.8Y1.6784
X1.8Y1.6
X1.872Y1.5
X1.9Y1.7
X1.9Y1.6
X2.0Y1.8
X2.1Y2.6
X2.2311Y1.8689
X2.2802Y2.1198
X2.3Y2.6
X2.3Y1.9
X2.3868Y2.2264
X2.4Y2.6
X2.4198Y2.0802
X2.4222Y2.0
X2.5Y1.8
X2.5198Y2.1802
X2.5689Y3.2311
X2.6Y2.1
X2.6Y1.8
X2.6Y1.1
X2.655Y2.555
X2.6675Y1.664
X2.7Y3.2
X2.7Y1.7
X2.7Y1.2
X2.7302Y1.8698
X2.7802Y2.3802
X2.8Y2.6
X2.8Y2.3
X2.8Y1.8
X2.828Y1.5
X2.8698Y1.1698
X2.9039Y1.2357
X2.9063Y3.0
X2.928Y2.6
X2.9325Y1.2
X2.972Y1.7
X2.9802Y1.1198
X2.9886Y1.6281
X2.995Y0.772
X3.0Y1.5
X3.0Y1.0
X3.0053Y1.172
X3.0665Y3.0
X3.1Y3.2
X3.1Y2.872
X3.1Y2.6
X3.1Y2.172
X3.1198Y0.8196
X3.144Y1.228
X3.172Y1.9
X3.2Y3.2734
X3.2Y2.3
X3.2Y1.7
X3.2Y1.2
X3.3Y1.9
X3.3747Y3.0253
X3.4815Y2.8915
X3.5Y2.2
X3.6019Y3.2019
X3.6302Y0.5698
X3.6698Y3.2302
X3.7Y2.3
X3.7Y2.0
X3.7802Y0.5802
X3.8Y0.7
X3.8167Y2.1167
X3.9Y2.5
X3.9Y1.1
X3.9802Y0.9802
X4.0198Y2.1198
X4.1Y1.8
X4.1Y1.1
X4.1698Y1.9698
X4.4Y1.5
X4.7Y1.4
X4.8Y0.8
X4.9Y1.4
X4.9698Y1.4698
X5.1Y0.9
T2
X0.6276Y2.85
X0.6276Y2.75
X0.6276Y2.65
X0.6276Y2.55
X0.6276Y2.45
X0.6276Y2.35
X0.6276Y2.25
X0.6276Y2.15
X1.5724Y2.85
X1.5724Y2.75
X1.5724Y2.65
X1.5724Y2.55
X1.5724Y2.45
X1.5724Y2.35
X1.5724Y2.25
X1.5724Y2.15
T3
X0.5Y1.6504
X0.5Y1.3504
X0.6Y1.6504
X0.6Y1.3504
X0.7Y1.6504
X0.7Y1.3504
X0.8Y1.6504
X0.8Y1.3504
X0.9Y1.6504
X0.9Y1.3504
X1.0Y1.6504
X1.0Y1.3504
X1.1Y1.6504
X1.1Y1.3504
X1.2Y1.6504
X1.2Y1.3504
X1.3Y1.6504
X1.3Y1.3504
X1.4Y1.6504
X1.4Y1.3504
X1.5Y1.6504
X1.5Y1.3504
X1.6Y1.6504
X1.6Y1.3504
X2.3Y2.7496
X2.3Y2.4496
X2.4Y2.7496
X2.4Y2.4496
X2.4502Y0.9496
X2.4502Y0.6496
X2.5Y2.7496
X2.5Y2.4496
X2.5502Y0.9496
X2.5502Y0.6496
X2.6Y2.7496
X2.6Y2.4496
X2.6502Y0.9496
X2.6502Y0.6496
X2.7Y2.7496
X2.7Y2.4496
X2.7502Y0.9496
X2.7502Y0.6496
X2.8Y2.7496
X2.8Y2.4496
X2.8502Y0.9496
X2.8502Y0.6496
X2.9Y2.7496
X2.9Y2.4496
X2.9502Y0.9496
X2.9502Y0.6496
X3.0Y2.7496
X3.0Y2.4496
X3.0502Y0.9496
X3.0502Y0.6496
X3.1Y2.7496
X3.1Y2.4496
X3.1502Y0.9496
X3.1502Y0.6496
X3.2Y2.7496
X3.2Y2.4496
X3.2502Y0.9496
X3.2502Y0.6496
X3.3Y2.7496
X3.3Y2.4496
X3.3502Y0.9496
X3.3502Y0.6496
X3.4Y2.7496
X3.4Y2.4496
X3.4502Y0.9496
X3.4502Y0.6496
X3.5Y2.7496
X3.5Y2.4496
X3.5502Y0.9496
X3.5502Y0.6496
X3.6Y2.7496
X3.6Y2.4496
X4.5504Y1.8496
X4.5504Y1.7496
X4.5504Y1.6496
X4.5504Y1.5496
X4.8504Y1.8496
X4.8504Y1.7496
X4.8504Y1.6496
X4.8504Y1.5496
T4
X2.6Y2.0
X2.6Y1.4
X2.7Y2.0
X2.7Y1.4
X2.8Y2.0
X2.8Y1.4
X2.9Y2.0
X2.9Y1.4
X3.0Y2.0
X3.0Y1.4
X3.1Y2.0
X3.1Y1.4
X3.2Y2.0
X3.2Y1.4
T5
X3.2406Y0.5
X3.4Y3.3
X3.4Y3.2
X3.4Y3.1
X3.4Y0.5
X3.5Y3.3
X3.5Y3.2
X3.5Y3.1
X5.0Y1.9
X5.2Y2.65
X5.2Y2.55
X5.2Y2.45
X5.2Y2.35
X5.2Y2.25
X5.2Y2.15
X5.2Y1.9
T6
X0.6428Y0.7
X1.4495Y0.7
T7
X0.2465Y3.3378
X0.2465Y0.1882
X5.3646Y3.3378
X5.3646Y0.1882
T5
G00X4.2409Y0.4898
M15
G01X4.1622Y0.4898
M16
G05
G00X4.3866Y0.3913
M15
G01X4.3079Y0.3913
M16
G05
G00X4.4378Y0.5508
M15
G01X4.4378Y0.6492
M16
G05
T0
M30
