%TF.GenerationSoftware,KiCad,Pcbnew,(6.0.5-0)*%
%TF.CreationDate,2022-07-23T11:30:03-07:00*%
%TF.ProjectId,MartincitoClock,4d617274-696e-4636-9974-6f436c6f636b,rev?*%
%TF.SameCoordinates,PX4b17a20PY8a12ae0*%
%TF.FileFunction,Soldermask,Top*%
%TF.FilePolarity,Negative*%
%FSLAX46Y46*%
G04 Gerber Fmt 4.6, Leading zero omitted, Abs format (unit mm)*
G04 Created by KiCad (PCBNEW (6.0.5-0)) date 2022-07-23 11:30:03*
%MOMM*%
%LPD*%
G01*
G04 APERTURE LIST*
G04 Aperture macros list*
%AMRoundRect*
0 Rectangle with rounded corners*
0 $1 Rounding radius*
0 $2 $3 $4 $5 $6 $7 $8 $9 X,Y pos of 4 corners*
0 Add a 4 corners polygon primitive as box body*
4,1,4,$2,$3,$4,$5,$6,$7,$8,$9,$2,$3,0*
0 Add four circle primitives for the rounded corners*
1,1,$1+$1,$2,$3*
1,1,$1+$1,$4,$5*
1,1,$1+$1,$6,$7*
1,1,$1+$1,$8,$9*
0 Add four rect primitives between the rounded corners*
20,1,$1+$1,$2,$3,$4,$5,0*
20,1,$1+$1,$4,$5,$6,$7,0*
20,1,$1+$1,$6,$7,$8,$9,0*
20,1,$1+$1,$8,$9,$2,$3,0*%
G04 Aperture macros list end*
%ADD10C,1.400000*%
%ADD11R,1.400000X1.400000*%
%ADD12R,1.600000X1.600000*%
%ADD13O,1.600000X1.600000*%
%ADD14R,3.000000X3.000000*%
%ADD15C,3.000000*%
%ADD16C,1.524000*%
%ADD17R,1.150000X1.400000*%
%ADD18RoundRect,0.150000X-0.825000X-0.150000X0.825000X-0.150000X0.825000X0.150000X-0.825000X0.150000X0*%
%ADD19C,3.200000*%
%ADD20R,1.700000X1.700000*%
%ADD21O,1.700000X1.700000*%
%ADD22R,1.400000X1.150000*%
%ADD23RoundRect,0.243750X-0.243750X-0.456250X0.243750X-0.456250X0.243750X0.456250X-0.243750X0.456250X0*%
%ADD24R,1.800000X1.000000*%
%ADD25R,1.000000X1.800000*%
%ADD26R,1.200000X2.200000*%
%ADD27R,5.800000X6.400000*%
%ADD28R,1.600000X1.400000*%
%ADD29RoundRect,0.500000X0.500000X-1.750000X0.500000X1.750000X-0.500000X1.750000X-0.500000X-1.750000X0*%
%ADD30RoundRect,0.500000X1.500000X0.500000X-1.500000X0.500000X-1.500000X-0.500000X1.500000X-0.500000X0*%
G04 APERTURE END LIST*
D10*
%TO.C,DS5*%
X66040000Y50800000D03*
X68580000Y50800000D03*
X71120000Y50800000D03*
X73660000Y50800000D03*
X76200000Y50800000D03*
X78740000Y50800000D03*
X81280000Y50800000D03*
X81280000Y35560000D03*
X78740000Y35560000D03*
X76200000Y35560000D03*
X73660000Y35560000D03*
X71120000Y35560000D03*
X68580000Y35560000D03*
D11*
X66040000Y35560000D03*
%TD*%
D12*
%TO.C,U6*%
X90175000Y24120000D03*
D13*
X87635000Y24120000D03*
X85095000Y24120000D03*
X82555000Y24120000D03*
X80015000Y24120000D03*
X77475000Y24120000D03*
X74935000Y24120000D03*
X72395000Y24120000D03*
X69855000Y24120000D03*
X67315000Y24120000D03*
X64775000Y24120000D03*
X62235000Y24120000D03*
X62235000Y16500000D03*
X64775000Y16500000D03*
X67315000Y16500000D03*
X69855000Y16500000D03*
X72395000Y16500000D03*
X74935000Y16500000D03*
X77475000Y16500000D03*
X80015000Y16500000D03*
X82555000Y16500000D03*
X85095000Y16500000D03*
X87635000Y16500000D03*
X90175000Y16500000D03*
%TD*%
D14*
%TO.C,BT1*%
X16326314Y17779983D03*
D15*
X36816314Y17779983D03*
%TD*%
D16*
%TO.C,D2*%
X15940000Y72390000D03*
X15940000Y69850000D03*
X15940000Y67310000D03*
X15940000Y64770000D03*
X15940000Y62230000D03*
X15940000Y59690000D03*
X15940000Y57150000D03*
X15940000Y54610000D03*
X39940000Y54610000D03*
X39940000Y57150000D03*
X39940000Y59690000D03*
X39940000Y62230000D03*
X39940000Y64770000D03*
X39940000Y67310000D03*
X39940000Y69850000D03*
X39940000Y72390000D03*
%TD*%
D17*
%TO.C,C6*%
X112610000Y63500000D03*
X110910000Y63500000D03*
%TD*%
D18*
%TO.C,U10*%
X127065000Y42545000D03*
X127065000Y41275000D03*
X127065000Y40005000D03*
X127065000Y38735000D03*
X132015000Y38735000D03*
X132015000Y40005000D03*
X132015000Y41275000D03*
X132015000Y42545000D03*
%TD*%
D19*
%TO.C,H4*%
X136260000Y4780000D03*
%TD*%
D17*
%TO.C,R20*%
X79590000Y76200000D03*
X77890000Y76200000D03*
%TD*%
%TO.C,C16*%
X77890000Y5080000D03*
X79590000Y5080000D03*
%TD*%
%TO.C,C15*%
X24550000Y45720000D03*
X26250000Y45720000D03*
%TD*%
D20*
%TO.C,J1*%
X132080000Y67310000D03*
D21*
X132080000Y64770000D03*
X132080000Y62230000D03*
X132080000Y59690000D03*
X132080000Y57150000D03*
X132080000Y54610000D03*
%TD*%
D22*
%TO.C,R7*%
X104140000Y61810000D03*
X104140000Y60110000D03*
%TD*%
D17*
%TO.C,C2*%
X70270000Y55880000D03*
X71970000Y55880000D03*
%TD*%
D22*
%TO.C,R2*%
X53340000Y70270000D03*
X53340000Y71970000D03*
%TD*%
D17*
%TO.C,C9*%
X77890000Y58420000D03*
X79590000Y58420000D03*
%TD*%
D23*
%TO.C,D1*%
X72722500Y76200000D03*
X74597500Y76200000D03*
%TD*%
D24*
%TO.C,Y2*%
X111760000Y44470000D03*
X111760000Y46970000D03*
%TD*%
D17*
%TO.C,C7*%
X71970000Y78740000D03*
X70270000Y78740000D03*
%TD*%
D25*
%TO.C,Y1*%
X69830000Y73660000D03*
X67330000Y73660000D03*
%TD*%
D12*
%TO.C,U3*%
X115580000Y46980000D03*
D13*
X115580000Y44440000D03*
X115580000Y41900000D03*
X115580000Y39360000D03*
X123200000Y39360000D03*
X123200000Y41900000D03*
X123200000Y44440000D03*
X123200000Y46980000D03*
%TD*%
D17*
%TO.C,C14*%
X24550000Y48260000D03*
X26250000Y48260000D03*
%TD*%
D22*
%TO.C,R6*%
X101600000Y49110000D03*
X101600000Y47410000D03*
%TD*%
D12*
%TO.C,U1*%
X91440000Y69840000D03*
D13*
X88900000Y69840000D03*
X86360000Y69840000D03*
X83820000Y69840000D03*
X81280000Y69840000D03*
X78740000Y69840000D03*
X76200000Y69840000D03*
X73660000Y69840000D03*
X71120000Y69840000D03*
X68580000Y69840000D03*
X66040000Y69840000D03*
X63500000Y69840000D03*
X60960000Y69840000D03*
X58420000Y69840000D03*
X58420000Y62220000D03*
X60960000Y62220000D03*
X63500000Y62220000D03*
X66040000Y62220000D03*
X68580000Y62220000D03*
X71120000Y62220000D03*
X73660000Y62220000D03*
X76200000Y62220000D03*
X78740000Y62220000D03*
X81280000Y62220000D03*
X83820000Y62220000D03*
X86360000Y62220000D03*
X88900000Y62220000D03*
X91440000Y62220000D03*
%TD*%
D22*
%TO.C,C8*%
X66040000Y79590000D03*
X66040000Y77890000D03*
%TD*%
D19*
%TO.C,H2*%
X136260000Y84780000D03*
%TD*%
%TO.C,H3*%
X6260000Y4780000D03*
%TD*%
D17*
%TO.C,R21*%
X77050000Y10160000D03*
X75350000Y10160000D03*
%TD*%
D26*
%TO.C,U2*%
X122180000Y16900000D03*
D27*
X124460000Y10600000D03*
D26*
X126740000Y16900000D03*
%TD*%
D22*
%TO.C,R1*%
X93980000Y79590000D03*
X93980000Y77890000D03*
%TD*%
D19*
%TO.C,H1*%
X6260000Y84780000D03*
%TD*%
D28*
%TO.C,SW1*%
X107760000Y58130000D03*
X115760000Y58130000D03*
X107760000Y53630000D03*
X115760000Y53630000D03*
%TD*%
D20*
%TO.C,J5*%
X86360000Y83820000D03*
D21*
X88900000Y83820000D03*
X86360000Y81280000D03*
X88900000Y81280000D03*
X86360000Y78740000D03*
X88900000Y78740000D03*
%TD*%
D22*
%TO.C,R17*%
X132080000Y34710000D03*
X132080000Y36410000D03*
%TD*%
D17*
%TO.C,C17*%
X77890000Y7620000D03*
X79590000Y7620000D03*
%TD*%
D28*
%TO.C,SW2*%
X97600000Y83530000D03*
X105600000Y83530000D03*
X97600000Y79030000D03*
X105600000Y79030000D03*
%TD*%
D17*
%TO.C,R5*%
X104990000Y55880000D03*
X103290000Y55880000D03*
%TD*%
%TO.C,R13*%
X112610000Y71120000D03*
X110910000Y71120000D03*
%TD*%
D28*
%TO.C,SW3*%
X49340000Y83530000D03*
X57340000Y83530000D03*
X49340000Y79030000D03*
X57340000Y79030000D03*
%TD*%
D22*
%TO.C,C12*%
X134620000Y14390000D03*
X134620000Y16090000D03*
%TD*%
D12*
%TO.C,U4*%
X12700000Y34300000D03*
D13*
X15240000Y34300000D03*
X17780000Y34300000D03*
X20320000Y34300000D03*
X22860000Y34300000D03*
X25400000Y34300000D03*
X27940000Y34300000D03*
X30480000Y34300000D03*
X33020000Y34300000D03*
X35560000Y34300000D03*
X38100000Y34300000D03*
X40640000Y34300000D03*
X40640000Y41920000D03*
X38100000Y41920000D03*
X35560000Y41920000D03*
X33020000Y41920000D03*
X30480000Y41920000D03*
X27940000Y41920000D03*
X25400000Y41920000D03*
X22860000Y41920000D03*
X20320000Y41920000D03*
X17780000Y41920000D03*
X15240000Y41920000D03*
X12700000Y41920000D03*
%TD*%
D22*
%TO.C,C1*%
X116840000Y11850000D03*
X116840000Y13550000D03*
%TD*%
D17*
%TO.C,R12*%
X112610000Y68580000D03*
X110910000Y68580000D03*
%TD*%
%TO.C,R10*%
X16930000Y30480000D03*
X18630000Y30480000D03*
%TD*%
D22*
%TO.C,R16*%
X137160000Y44030000D03*
X137160000Y42330000D03*
%TD*%
D29*
%TO.C,J2*%
X112720000Y15240000D03*
D30*
X110420000Y9940000D03*
X106720000Y12440000D03*
%TD*%
M02*
