%TF.GenerationSoftware,KiCad,Pcbnew,(6.0.5-0)*%
%TF.CreationDate,2022-07-21T14:46:48-07:00*%
%TF.ProjectId,MartincitoClock,4d617274-696e-4636-9974-6f436c6f636b,rev?*%
%TF.SameCoordinates,PX4b17a20PY8a12ae0*%
%TF.FileFunction,Legend,Top*%
%TF.FilePolarity,Positive*%
%FSLAX46Y46*%
G04 Gerber Fmt 4.6, Leading zero omitted, Abs format (unit mm)*
G04 Created by KiCad (PCBNEW (6.0.5-0)) date 2022-07-21 14:46:48*
%MOMM*%
%LPD*%
G01*
G04 APERTURE LIST*
G04 Aperture macros list*
%AMRoundRect*
0 Rectangle with rounded corners*
0 $1 Rounding radius*
0 $2 $3 $4 $5 $6 $7 $8 $9 X,Y pos of 4 corners*
0 Add a 4 corners polygon primitive as box body*
4,1,4,$2,$3,$4,$5,$6,$7,$8,$9,$2,$3,0*
0 Add four circle primitives for the rounded corners*
1,1,$1+$1,$2,$3*
1,1,$1+$1,$4,$5*
1,1,$1+$1,$6,$7*
1,1,$1+$1,$8,$9*
0 Add four rect primitives between the rounded corners*
20,1,$1+$1,$2,$3,$4,$5,0*
20,1,$1+$1,$4,$5,$6,$7,0*
20,1,$1+$1,$6,$7,$8,$9,0*
20,1,$1+$1,$8,$9,$2,$3,0*%
G04 Aperture macros list end*
%ADD10C,0.300000*%
%ADD11C,0.150000*%
%ADD12C,0.120000*%
%ADD13C,0.250000*%
%ADD14R,1.150000X1.400000*%
%ADD15RoundRect,0.150000X-0.825000X-0.150000X0.825000X-0.150000X0.825000X0.150000X-0.825000X0.150000X0*%
%ADD16C,3.200000*%
%ADD17C,2.000000*%
%ADD18R,1.700000X1.700000*%
%ADD19O,1.700000X1.700000*%
%ADD20R,1.400000X1.150000*%
%ADD21RoundRect,0.243750X-0.243750X-0.456250X0.243750X-0.456250X0.243750X0.456250X-0.243750X0.456250X0*%
%ADD22R,1.800000X1.000000*%
%ADD23R,1.000000X1.800000*%
%ADD24R,1.600000X1.600000*%
%ADD25O,1.600000X1.600000*%
%ADD26C,1.524000*%
%ADD27R,3.000000X3.000000*%
%ADD28C,3.000000*%
%ADD29R,1.200000X2.200000*%
%ADD30R,5.800000X6.400000*%
%ADD31R,1.400000X1.400000*%
%ADD32C,1.400000*%
%ADD33R,1.600000X1.400000*%
%ADD34RoundRect,0.500000X0.500000X-1.750000X0.500000X1.750000X-0.500000X1.750000X-0.500000X-1.750000X0*%
%ADD35RoundRect,0.500000X1.500000X0.500000X-1.500000X0.500000X-1.500000X-0.500000X1.500000X-0.500000X0*%
G04 APERTURE END LIST*
D10*
X115915714Y55272858D02*
X116130000Y55201429D01*
X116487142Y55201429D01*
X116630000Y55272858D01*
X116701428Y55344286D01*
X116772857Y55487143D01*
X116772857Y55630000D01*
X116701428Y55772858D01*
X116630000Y55844286D01*
X116487142Y55915715D01*
X116201428Y55987143D01*
X116058571Y56058572D01*
X115987142Y56130000D01*
X115915714Y56272858D01*
X115915714Y56415715D01*
X115987142Y56558572D01*
X116058571Y56630000D01*
X116201428Y56701429D01*
X116558571Y56701429D01*
X116772857Y56630000D01*
X117415714Y55987143D02*
X117915714Y55987143D01*
X118130000Y55201429D02*
X117415714Y55201429D01*
X117415714Y56701429D01*
X118130000Y56701429D01*
X119630000Y55201429D02*
X119130000Y55915715D01*
X118772857Y55201429D02*
X118772857Y56701429D01*
X119344285Y56701429D01*
X119487142Y56630000D01*
X119558571Y56558572D01*
X119630000Y56415715D01*
X119630000Y56201429D01*
X119558571Y56058572D01*
X119487142Y55987143D01*
X119344285Y55915715D01*
X118772857Y55915715D01*
X120272857Y55201429D02*
X120272857Y56701429D01*
X120915714Y55630000D02*
X121630000Y55630000D01*
X120772857Y55201429D02*
X121272857Y56701429D01*
X121772857Y55201429D01*
X122987142Y55201429D02*
X122272857Y55201429D01*
X122272857Y56701429D01*
X50590000Y85681429D02*
X50590000Y87181429D01*
X50590000Y86467143D02*
X51447142Y86467143D01*
X51447142Y85681429D02*
X51447142Y87181429D01*
X52447142Y87181429D02*
X52732857Y87181429D01*
X52875714Y87110000D01*
X53018571Y86967143D01*
X53090000Y86681429D01*
X53090000Y86181429D01*
X53018571Y85895715D01*
X52875714Y85752858D01*
X52732857Y85681429D01*
X52447142Y85681429D01*
X52304285Y85752858D01*
X52161428Y85895715D01*
X52090000Y86181429D01*
X52090000Y86681429D01*
X52161428Y86967143D01*
X52304285Y87110000D01*
X52447142Y87181429D01*
X53732857Y87181429D02*
X53732857Y85967143D01*
X53804285Y85824286D01*
X53875714Y85752858D01*
X54018571Y85681429D01*
X54304285Y85681429D01*
X54447142Y85752858D01*
X54518571Y85824286D01*
X54590000Y85967143D01*
X54590000Y87181429D01*
X56161428Y85681429D02*
X55661428Y86395715D01*
X55304285Y85681429D02*
X55304285Y87181429D01*
X55875714Y87181429D01*
X56018571Y87110000D01*
X56090000Y87038572D01*
X56161428Y86895715D01*
X56161428Y86681429D01*
X56090000Y86538572D01*
X56018571Y86467143D01*
X55875714Y86395715D01*
X55304285Y86395715D01*
X99957142Y85681429D02*
X99957142Y87181429D01*
X100457142Y86110000D01*
X100957142Y87181429D01*
X100957142Y85681429D01*
X101671428Y85681429D02*
X101671428Y87181429D01*
X102385714Y85681429D02*
X102385714Y87181429D01*
X103242857Y85681429D01*
X103242857Y87181429D01*
X105228571Y4830000D02*
X105942857Y4830000D01*
X105085714Y4401429D02*
X105585714Y5901429D01*
X106085714Y4401429D01*
X106585714Y4401429D02*
X106585714Y5901429D01*
X107228571Y4401429D02*
X107228571Y5187143D01*
X107157142Y5330000D01*
X107014285Y5401429D01*
X106800000Y5401429D01*
X106657142Y5330000D01*
X106585714Y5258572D01*
X108157142Y4401429D02*
X108014285Y4472858D01*
X107942857Y4544286D01*
X107871428Y4687143D01*
X107871428Y5115715D01*
X107942857Y5258572D01*
X108014285Y5330000D01*
X108157142Y5401429D01*
X108371428Y5401429D01*
X108514285Y5330000D01*
X108585714Y5258572D01*
X108657142Y5115715D01*
X108657142Y4687143D01*
X108585714Y4544286D01*
X108514285Y4472858D01*
X108371428Y4401429D01*
X108157142Y4401429D01*
X109300000Y4401429D02*
X109300000Y5401429D01*
X109300000Y5115715D02*
X109371428Y5258572D01*
X109442857Y5330000D01*
X109585714Y5401429D01*
X109728571Y5401429D01*
X110871428Y4401429D02*
X110871428Y5187143D01*
X110800000Y5330000D01*
X110657142Y5401429D01*
X110371428Y5401429D01*
X110228571Y5330000D01*
X110871428Y4472858D02*
X110728571Y4401429D01*
X110371428Y4401429D01*
X110228571Y4472858D01*
X110157142Y4615715D01*
X110157142Y4758572D01*
X110228571Y4901429D01*
X110371428Y4972858D01*
X110728571Y4972858D01*
X110871428Y5044286D01*
X113014285Y5115715D02*
X113014285Y4401429D01*
X112514285Y5901429D02*
X113014285Y5115715D01*
X113514285Y5901429D01*
X114228571Y4401429D02*
X114085714Y4472858D01*
X114014285Y4544286D01*
X113942857Y4687143D01*
X113942857Y5115715D01*
X114014285Y5258572D01*
X114085714Y5330000D01*
X114228571Y5401429D01*
X114442857Y5401429D01*
X114585714Y5330000D01*
X114657142Y5258572D01*
X114728571Y5115715D01*
X114728571Y4687143D01*
X114657142Y4544286D01*
X114585714Y4472858D01*
X114442857Y4401429D01*
X114228571Y4401429D01*
X116514285Y4401429D02*
X116514285Y5901429D01*
X117085714Y5901429D01*
X117228571Y5830000D01*
X117300000Y5758572D01*
X117371428Y5615715D01*
X117371428Y5401429D01*
X117300000Y5258572D01*
X117228571Y5187143D01*
X117085714Y5115715D01*
X116514285Y5115715D01*
X118014285Y4401429D02*
X118014285Y5401429D01*
X118014285Y5901429D02*
X117942857Y5830000D01*
X118014285Y5758572D01*
X118085714Y5830000D01*
X118014285Y5901429D01*
X118014285Y5758572D01*
X119371428Y4472858D02*
X119228571Y4401429D01*
X118942857Y4401429D01*
X118800000Y4472858D01*
X118728571Y4544286D01*
X118657142Y4687143D01*
X118657142Y5115715D01*
X118728571Y5258572D01*
X118800000Y5330000D01*
X118942857Y5401429D01*
X119228571Y5401429D01*
X119371428Y5330000D01*
X120014285Y4401429D02*
X120014285Y5901429D01*
X120657142Y4401429D02*
X120657142Y5187143D01*
X120585714Y5330000D01*
X120442857Y5401429D01*
X120228571Y5401429D01*
X120085714Y5330000D01*
X120014285Y5258572D01*
X121942857Y4472858D02*
X121800000Y4401429D01*
X121514285Y4401429D01*
X121371428Y4472858D01*
X121300000Y4615715D01*
X121300000Y5187143D01*
X121371428Y5330000D01*
X121514285Y5401429D01*
X121800000Y5401429D01*
X121942857Y5330000D01*
X122014285Y5187143D01*
X122014285Y5044286D01*
X121300000Y4901429D01*
X122871428Y4401429D02*
X122728571Y4472858D01*
X122657142Y4544286D01*
X122585714Y4687143D01*
X122585714Y5115715D01*
X122657142Y5258572D01*
X122728571Y5330000D01*
X122871428Y5401429D01*
X123085714Y5401429D01*
X123228571Y5330000D01*
X123300000Y5258572D01*
X123371428Y5115715D01*
X123371428Y4687143D01*
X123300000Y4544286D01*
X123228571Y4472858D01*
X123085714Y4401429D01*
X122871428Y4401429D01*
D11*
%TO.C,C6*%
X111593333Y61492858D02*
X111545714Y61445239D01*
X111402857Y61397620D01*
X111307619Y61397620D01*
X111164761Y61445239D01*
X111069523Y61540477D01*
X111021904Y61635715D01*
X110974285Y61826191D01*
X110974285Y61969048D01*
X111021904Y62159524D01*
X111069523Y62254762D01*
X111164761Y62350000D01*
X111307619Y62397620D01*
X111402857Y62397620D01*
X111545714Y62350000D01*
X111593333Y62302381D01*
X112450476Y62397620D02*
X112260000Y62397620D01*
X112164761Y62350000D01*
X112117142Y62302381D01*
X112021904Y62159524D01*
X111974285Y61969048D01*
X111974285Y61588096D01*
X112021904Y61492858D01*
X112069523Y61445239D01*
X112164761Y61397620D01*
X112355238Y61397620D01*
X112450476Y61445239D01*
X112498095Y61492858D01*
X112545714Y61588096D01*
X112545714Y61826191D01*
X112498095Y61921429D01*
X112450476Y61969048D01*
X112355238Y62016667D01*
X112164761Y62016667D01*
X112069523Y61969048D01*
X112021904Y61921429D01*
X111974285Y61826191D01*
%TO.C,U10*%
X128301904Y44587620D02*
X128301904Y43778096D01*
X128349523Y43682858D01*
X128397142Y43635239D01*
X128492380Y43587620D01*
X128682857Y43587620D01*
X128778095Y43635239D01*
X128825714Y43682858D01*
X128873333Y43778096D01*
X128873333Y44587620D01*
X129873333Y43587620D02*
X129301904Y43587620D01*
X129587619Y43587620D02*
X129587619Y44587620D01*
X129492380Y44444762D01*
X129397142Y44349524D01*
X129301904Y44301905D01*
X130492380Y44587620D02*
X130587619Y44587620D01*
X130682857Y44540000D01*
X130730476Y44492381D01*
X130778095Y44397143D01*
X130825714Y44206667D01*
X130825714Y43968572D01*
X130778095Y43778096D01*
X130730476Y43682858D01*
X130682857Y43635239D01*
X130587619Y43587620D01*
X130492380Y43587620D01*
X130397142Y43635239D01*
X130349523Y43682858D01*
X130301904Y43778096D01*
X130254285Y43968572D01*
X130254285Y44206667D01*
X130301904Y44397143D01*
X130349523Y44492381D01*
X130397142Y44540000D01*
X130492380Y44587620D01*
%TO.C,H4*%
X135498095Y8527620D02*
X135498095Y9527620D01*
X135498095Y9051429D02*
X136069523Y9051429D01*
X136069523Y8527620D02*
X136069523Y9527620D01*
X136974285Y9194286D02*
X136974285Y8527620D01*
X136736190Y9575239D02*
X136498095Y8860953D01*
X137117142Y8860953D01*
%TO.C,R20*%
X78097142Y74097620D02*
X77763809Y74573810D01*
X77525714Y74097620D02*
X77525714Y75097620D01*
X77906666Y75097620D01*
X78001904Y75050000D01*
X78049523Y75002381D01*
X78097142Y74907143D01*
X78097142Y74764286D01*
X78049523Y74669048D01*
X78001904Y74621429D01*
X77906666Y74573810D01*
X77525714Y74573810D01*
X78478095Y75002381D02*
X78525714Y75050000D01*
X78620952Y75097620D01*
X78859047Y75097620D01*
X78954285Y75050000D01*
X79001904Y75002381D01*
X79049523Y74907143D01*
X79049523Y74811905D01*
X79001904Y74669048D01*
X78430476Y74097620D01*
X79049523Y74097620D01*
X79668571Y75097620D02*
X79763809Y75097620D01*
X79859047Y75050000D01*
X79906666Y75002381D01*
X79954285Y74907143D01*
X80001904Y74716667D01*
X80001904Y74478572D01*
X79954285Y74288096D01*
X79906666Y74192858D01*
X79859047Y74145239D01*
X79763809Y74097620D01*
X79668571Y74097620D01*
X79573333Y74145239D01*
X79525714Y74192858D01*
X79478095Y74288096D01*
X79430476Y74478572D01*
X79430476Y74716667D01*
X79478095Y74907143D01*
X79525714Y75002381D01*
X79573333Y75050000D01*
X79668571Y75097620D01*
%TO.C,C16*%
X85717142Y4722858D02*
X85669523Y4675239D01*
X85526666Y4627620D01*
X85431428Y4627620D01*
X85288571Y4675239D01*
X85193333Y4770477D01*
X85145714Y4865715D01*
X85098095Y5056191D01*
X85098095Y5199048D01*
X85145714Y5389524D01*
X85193333Y5484762D01*
X85288571Y5580000D01*
X85431428Y5627620D01*
X85526666Y5627620D01*
X85669523Y5580000D01*
X85717142Y5532381D01*
X86669523Y4627620D02*
X86098095Y4627620D01*
X86383809Y4627620D02*
X86383809Y5627620D01*
X86288571Y5484762D01*
X86193333Y5389524D01*
X86098095Y5341905D01*
X87526666Y5627620D02*
X87336190Y5627620D01*
X87240952Y5580000D01*
X87193333Y5532381D01*
X87098095Y5389524D01*
X87050476Y5199048D01*
X87050476Y4818096D01*
X87098095Y4722858D01*
X87145714Y4675239D01*
X87240952Y4627620D01*
X87431428Y4627620D01*
X87526666Y4675239D01*
X87574285Y4722858D01*
X87621904Y4818096D01*
X87621904Y5056191D01*
X87574285Y5151429D01*
X87526666Y5199048D01*
X87431428Y5246667D01*
X87240952Y5246667D01*
X87145714Y5199048D01*
X87098095Y5151429D01*
X87050476Y5056191D01*
%TO.C,C15*%
X19677142Y45362858D02*
X19629523Y45315239D01*
X19486666Y45267620D01*
X19391428Y45267620D01*
X19248571Y45315239D01*
X19153333Y45410477D01*
X19105714Y45505715D01*
X19058095Y45696191D01*
X19058095Y45839048D01*
X19105714Y46029524D01*
X19153333Y46124762D01*
X19248571Y46220000D01*
X19391428Y46267620D01*
X19486666Y46267620D01*
X19629523Y46220000D01*
X19677142Y46172381D01*
X20629523Y45267620D02*
X20058095Y45267620D01*
X20343809Y45267620D02*
X20343809Y46267620D01*
X20248571Y46124762D01*
X20153333Y46029524D01*
X20058095Y45981905D01*
X21534285Y46267620D02*
X21058095Y46267620D01*
X21010476Y45791429D01*
X21058095Y45839048D01*
X21153333Y45886667D01*
X21391428Y45886667D01*
X21486666Y45839048D01*
X21534285Y45791429D01*
X21581904Y45696191D01*
X21581904Y45458096D01*
X21534285Y45362858D01*
X21486666Y45315239D01*
X21391428Y45267620D01*
X21153333Y45267620D01*
X21058095Y45315239D01*
X21010476Y45362858D01*
%TO.C,TP3*%
X130818095Y50805620D02*
X131389523Y50805620D01*
X131103809Y49805620D02*
X131103809Y50805620D01*
X131722857Y49805620D02*
X131722857Y50805620D01*
X132103809Y50805620D01*
X132199047Y50758000D01*
X132246666Y50710381D01*
X132294285Y50615143D01*
X132294285Y50472286D01*
X132246666Y50377048D01*
X132199047Y50329429D01*
X132103809Y50281810D01*
X131722857Y50281810D01*
X132627619Y50805620D02*
X133246666Y50805620D01*
X132913333Y50424667D01*
X133056190Y50424667D01*
X133151428Y50377048D01*
X133199047Y50329429D01*
X133246666Y50234191D01*
X133246666Y49996096D01*
X133199047Y49900858D01*
X133151428Y49853239D01*
X133056190Y49805620D01*
X132770476Y49805620D01*
X132675238Y49853239D01*
X132627619Y49900858D01*
%TO.C,J1*%
X131746666Y70187620D02*
X131746666Y69473334D01*
X131699047Y69330477D01*
X131603809Y69235239D01*
X131460952Y69187620D01*
X131365714Y69187620D01*
X132746666Y69187620D02*
X132175238Y69187620D01*
X132460952Y69187620D02*
X132460952Y70187620D01*
X132365714Y70044762D01*
X132270476Y69949524D01*
X132175238Y69901905D01*
%TO.C,R7*%
X106242380Y60793334D02*
X105766190Y60460000D01*
X106242380Y60221905D02*
X105242380Y60221905D01*
X105242380Y60602858D01*
X105290000Y60698096D01*
X105337619Y60745715D01*
X105432857Y60793334D01*
X105575714Y60793334D01*
X105670952Y60745715D01*
X105718571Y60698096D01*
X105766190Y60602858D01*
X105766190Y60221905D01*
X105242380Y61126667D02*
X105242380Y61793334D01*
X106242380Y61364762D01*
%TO.C,C2*%
X70953333Y57172858D02*
X70905714Y57125239D01*
X70762857Y57077620D01*
X70667619Y57077620D01*
X70524761Y57125239D01*
X70429523Y57220477D01*
X70381904Y57315715D01*
X70334285Y57506191D01*
X70334285Y57649048D01*
X70381904Y57839524D01*
X70429523Y57934762D01*
X70524761Y58030000D01*
X70667619Y58077620D01*
X70762857Y58077620D01*
X70905714Y58030000D01*
X70953333Y57982381D01*
X71334285Y57982381D02*
X71381904Y58030000D01*
X71477142Y58077620D01*
X71715238Y58077620D01*
X71810476Y58030000D01*
X71858095Y57982381D01*
X71905714Y57887143D01*
X71905714Y57791905D01*
X71858095Y57649048D01*
X71286666Y57077620D01*
X71905714Y57077620D01*
%TO.C,R2*%
X52142380Y70953334D02*
X51666190Y70620000D01*
X52142380Y70381905D02*
X51142380Y70381905D01*
X51142380Y70762858D01*
X51190000Y70858096D01*
X51237619Y70905715D01*
X51332857Y70953334D01*
X51475714Y70953334D01*
X51570952Y70905715D01*
X51618571Y70858096D01*
X51666190Y70762858D01*
X51666190Y70381905D01*
X51237619Y71334286D02*
X51190000Y71381905D01*
X51142380Y71477143D01*
X51142380Y71715239D01*
X51190000Y71810477D01*
X51237619Y71858096D01*
X51332857Y71905715D01*
X51428095Y71905715D01*
X51570952Y71858096D01*
X52142380Y71286667D01*
X52142380Y71905715D01*
%TO.C,C9*%
X78573333Y59712858D02*
X78525714Y59665239D01*
X78382857Y59617620D01*
X78287619Y59617620D01*
X78144761Y59665239D01*
X78049523Y59760477D01*
X78001904Y59855715D01*
X77954285Y60046191D01*
X77954285Y60189048D01*
X78001904Y60379524D01*
X78049523Y60474762D01*
X78144761Y60570000D01*
X78287619Y60617620D01*
X78382857Y60617620D01*
X78525714Y60570000D01*
X78573333Y60522381D01*
X79049523Y59617620D02*
X79240000Y59617620D01*
X79335238Y59665239D01*
X79382857Y59712858D01*
X79478095Y59855715D01*
X79525714Y60046191D01*
X79525714Y60427143D01*
X79478095Y60522381D01*
X79430476Y60570000D01*
X79335238Y60617620D01*
X79144761Y60617620D01*
X79049523Y60570000D01*
X79001904Y60522381D01*
X78954285Y60427143D01*
X78954285Y60189048D01*
X79001904Y60093810D01*
X79049523Y60046191D01*
X79144761Y59998572D01*
X79335238Y59998572D01*
X79430476Y60046191D01*
X79478095Y60093810D01*
X79525714Y60189048D01*
%TO.C,D1*%
X72921904Y77397620D02*
X72921904Y78397620D01*
X73160000Y78397620D01*
X73302857Y78350000D01*
X73398095Y78254762D01*
X73445714Y78159524D01*
X73493333Y77969048D01*
X73493333Y77826191D01*
X73445714Y77635715D01*
X73398095Y77540477D01*
X73302857Y77445239D01*
X73160000Y77397620D01*
X72921904Y77397620D01*
X74445714Y77397620D02*
X73874285Y77397620D01*
X74160000Y77397620D02*
X74160000Y78397620D01*
X74064761Y78254762D01*
X73969523Y78159524D01*
X73874285Y78111905D01*
%TO.C,Y2*%
X109786190Y45243810D02*
X110262380Y45243810D01*
X109262380Y44910477D02*
X109786190Y45243810D01*
X109262380Y45577143D01*
X109357619Y45862858D02*
X109310000Y45910477D01*
X109262380Y46005715D01*
X109262380Y46243810D01*
X109310000Y46339048D01*
X109357619Y46386667D01*
X109452857Y46434286D01*
X109548095Y46434286D01*
X109690952Y46386667D01*
X110262380Y45815239D01*
X110262380Y46434286D01*
%TO.C,C7*%
X70953333Y76732858D02*
X70905714Y76685239D01*
X70762857Y76637620D01*
X70667619Y76637620D01*
X70524761Y76685239D01*
X70429523Y76780477D01*
X70381904Y76875715D01*
X70334285Y77066191D01*
X70334285Y77209048D01*
X70381904Y77399524D01*
X70429523Y77494762D01*
X70524761Y77590000D01*
X70667619Y77637620D01*
X70762857Y77637620D01*
X70905714Y77590000D01*
X70953333Y77542381D01*
X71286666Y77637620D02*
X71953333Y77637620D01*
X71524761Y76637620D01*
%TO.C,Y1*%
X68103809Y71733810D02*
X68103809Y71257620D01*
X67770476Y72257620D02*
X68103809Y71733810D01*
X68437142Y72257620D01*
X69294285Y71257620D02*
X68722857Y71257620D01*
X69008571Y71257620D02*
X69008571Y72257620D01*
X68913333Y72114762D01*
X68818095Y72019524D01*
X68722857Y71971905D01*
%TO.C,U3*%
X118628095Y49857620D02*
X118628095Y49048096D01*
X118675714Y48952858D01*
X118723333Y48905239D01*
X118818571Y48857620D01*
X119009047Y48857620D01*
X119104285Y48905239D01*
X119151904Y48952858D01*
X119199523Y49048096D01*
X119199523Y49857620D01*
X119580476Y49857620D02*
X120199523Y49857620D01*
X119866190Y49476667D01*
X120009047Y49476667D01*
X120104285Y49429048D01*
X120151904Y49381429D01*
X120199523Y49286191D01*
X120199523Y49048096D01*
X120151904Y48952858D01*
X120104285Y48905239D01*
X120009047Y48857620D01*
X119723333Y48857620D01*
X119628095Y48905239D01*
X119580476Y48952858D01*
%TO.C,D2*%
X27201904Y76047620D02*
X27201904Y77047620D01*
X27440000Y77047620D01*
X27582857Y77000000D01*
X27678095Y76904762D01*
X27725714Y76809524D01*
X27773333Y76619048D01*
X27773333Y76476191D01*
X27725714Y76285715D01*
X27678095Y76190477D01*
X27582857Y76095239D01*
X27440000Y76047620D01*
X27201904Y76047620D01*
X28154285Y76952381D02*
X28201904Y77000000D01*
X28297142Y77047620D01*
X28535238Y77047620D01*
X28630476Y77000000D01*
X28678095Y76952381D01*
X28725714Y76857143D01*
X28725714Y76761905D01*
X28678095Y76619048D01*
X28106666Y76047620D01*
X28725714Y76047620D01*
X37749523Y54047620D02*
X37940000Y54047620D01*
X38035238Y54095239D01*
X38082857Y54142858D01*
X38178095Y54285715D01*
X38225714Y54476191D01*
X38225714Y54857143D01*
X38178095Y54952381D01*
X38130476Y55000000D01*
X38035238Y55047620D01*
X37844761Y55047620D01*
X37749523Y55000000D01*
X37701904Y54952381D01*
X37654285Y54857143D01*
X37654285Y54619048D01*
X37701904Y54523810D01*
X37749523Y54476191D01*
X37844761Y54428572D01*
X38035238Y54428572D01*
X38130476Y54476191D01*
X38178095Y54523810D01*
X38225714Y54619048D01*
X17844761Y54619048D02*
X17749523Y54666667D01*
X17701904Y54714286D01*
X17654285Y54809524D01*
X17654285Y54857143D01*
X17701904Y54952381D01*
X17749523Y55000000D01*
X17844761Y55047620D01*
X18035238Y55047620D01*
X18130476Y55000000D01*
X18178095Y54952381D01*
X18225714Y54857143D01*
X18225714Y54809524D01*
X18178095Y54714286D01*
X18130476Y54666667D01*
X18035238Y54619048D01*
X17844761Y54619048D01*
X17749523Y54571429D01*
X17701904Y54523810D01*
X17654285Y54428572D01*
X17654285Y54238096D01*
X17701904Y54142858D01*
X17749523Y54095239D01*
X17844761Y54047620D01*
X18035238Y54047620D01*
X18130476Y54095239D01*
X18178095Y54142858D01*
X18225714Y54238096D01*
X18225714Y54428572D01*
X18178095Y54523810D01*
X18130476Y54571429D01*
X18035238Y54619048D01*
X37749523Y72047620D02*
X37178095Y72047620D01*
X37463809Y72047620D02*
X37463809Y73047620D01*
X37368571Y72904762D01*
X37273333Y72809524D01*
X37178095Y72761905D01*
X38606666Y73047620D02*
X38416190Y73047620D01*
X38320952Y73000000D01*
X38273333Y72952381D01*
X38178095Y72809524D01*
X38130476Y72619048D01*
X38130476Y72238096D01*
X38178095Y72142858D01*
X38225714Y72095239D01*
X38320952Y72047620D01*
X38511428Y72047620D01*
X38606666Y72095239D01*
X38654285Y72142858D01*
X38701904Y72238096D01*
X38701904Y72476191D01*
X38654285Y72571429D01*
X38606666Y72619048D01*
X38511428Y72666667D01*
X38320952Y72666667D01*
X38225714Y72619048D01*
X38178095Y72571429D01*
X38130476Y72476191D01*
X18225714Y72047620D02*
X17654285Y72047620D01*
X17940000Y72047620D02*
X17940000Y73047620D01*
X17844761Y72904762D01*
X17749523Y72809524D01*
X17654285Y72761905D01*
%TO.C,C14*%
X24757142Y49552858D02*
X24709523Y49505239D01*
X24566666Y49457620D01*
X24471428Y49457620D01*
X24328571Y49505239D01*
X24233333Y49600477D01*
X24185714Y49695715D01*
X24138095Y49886191D01*
X24138095Y50029048D01*
X24185714Y50219524D01*
X24233333Y50314762D01*
X24328571Y50410000D01*
X24471428Y50457620D01*
X24566666Y50457620D01*
X24709523Y50410000D01*
X24757142Y50362381D01*
X25709523Y49457620D02*
X25138095Y49457620D01*
X25423809Y49457620D02*
X25423809Y50457620D01*
X25328571Y50314762D01*
X25233333Y50219524D01*
X25138095Y50171905D01*
X26566666Y50124286D02*
X26566666Y49457620D01*
X26328571Y50505239D02*
X26090476Y49790953D01*
X26709523Y49790953D01*
%TO.C,R6*%
X103702380Y48093334D02*
X103226190Y47760000D01*
X103702380Y47521905D02*
X102702380Y47521905D01*
X102702380Y47902858D01*
X102750000Y47998096D01*
X102797619Y48045715D01*
X102892857Y48093334D01*
X103035714Y48093334D01*
X103130952Y48045715D01*
X103178571Y47998096D01*
X103226190Y47902858D01*
X103226190Y47521905D01*
X102702380Y48950477D02*
X102702380Y48760000D01*
X102750000Y48664762D01*
X102797619Y48617143D01*
X102940476Y48521905D01*
X103130952Y48474286D01*
X103511904Y48474286D01*
X103607142Y48521905D01*
X103654761Y48569524D01*
X103702380Y48664762D01*
X103702380Y48855239D01*
X103654761Y48950477D01*
X103607142Y48998096D01*
X103511904Y49045715D01*
X103273809Y49045715D01*
X103178571Y48998096D01*
X103130952Y48950477D01*
X103083333Y48855239D01*
X103083333Y48664762D01*
X103130952Y48569524D01*
X103178571Y48521905D01*
X103273809Y48474286D01*
%TO.C,U1*%
X93222380Y65268096D02*
X94031904Y65268096D01*
X94127142Y65315715D01*
X94174761Y65363334D01*
X94222380Y65458572D01*
X94222380Y65649048D01*
X94174761Y65744286D01*
X94127142Y65791905D01*
X94031904Y65839524D01*
X93222380Y65839524D01*
X94222380Y66839524D02*
X94222380Y66268096D01*
X94222380Y66553810D02*
X93222380Y66553810D01*
X93365238Y66458572D01*
X93460476Y66363334D01*
X93508095Y66268096D01*
%TO.C,C8*%
X68047142Y78573334D02*
X68094761Y78525715D01*
X68142380Y78382858D01*
X68142380Y78287620D01*
X68094761Y78144762D01*
X67999523Y78049524D01*
X67904285Y78001905D01*
X67713809Y77954286D01*
X67570952Y77954286D01*
X67380476Y78001905D01*
X67285238Y78049524D01*
X67190000Y78144762D01*
X67142380Y78287620D01*
X67142380Y78382858D01*
X67190000Y78525715D01*
X67237619Y78573334D01*
X67570952Y79144762D02*
X67523333Y79049524D01*
X67475714Y79001905D01*
X67380476Y78954286D01*
X67332857Y78954286D01*
X67237619Y79001905D01*
X67190000Y79049524D01*
X67142380Y79144762D01*
X67142380Y79335239D01*
X67190000Y79430477D01*
X67237619Y79478096D01*
X67332857Y79525715D01*
X67380476Y79525715D01*
X67475714Y79478096D01*
X67523333Y79430477D01*
X67570952Y79335239D01*
X67570952Y79144762D01*
X67618571Y79049524D01*
X67666190Y79001905D01*
X67761428Y78954286D01*
X67951904Y78954286D01*
X68047142Y79001905D01*
X68094761Y79049524D01*
X68142380Y79144762D01*
X68142380Y79335239D01*
X68094761Y79430477D01*
X68047142Y79478096D01*
X67951904Y79525715D01*
X67761428Y79525715D01*
X67666190Y79478096D01*
X67618571Y79430477D01*
X67570952Y79335239D01*
%TO.C,H2*%
X135498095Y88527620D02*
X135498095Y89527620D01*
X135498095Y89051429D02*
X136069523Y89051429D01*
X136069523Y88527620D02*
X136069523Y89527620D01*
X136498095Y89432381D02*
X136545714Y89480000D01*
X136640952Y89527620D01*
X136879047Y89527620D01*
X136974285Y89480000D01*
X137021904Y89432381D01*
X137069523Y89337143D01*
X137069523Y89241905D01*
X137021904Y89099048D01*
X136450476Y88527620D01*
X137069523Y88527620D01*
%TO.C,H3*%
X5498095Y8527620D02*
X5498095Y9527620D01*
X5498095Y9051429D02*
X6069523Y9051429D01*
X6069523Y8527620D02*
X6069523Y9527620D01*
X6450476Y9527620D02*
X7069523Y9527620D01*
X6736190Y9146667D01*
X6879047Y9146667D01*
X6974285Y9099048D01*
X7021904Y9051429D01*
X7069523Y8956191D01*
X7069523Y8718096D01*
X7021904Y8622858D01*
X6974285Y8575239D01*
X6879047Y8527620D01*
X6593333Y8527620D01*
X6498095Y8575239D01*
X6450476Y8622858D01*
%TO.C,R21*%
X73017142Y8057620D02*
X72683809Y8533810D01*
X72445714Y8057620D02*
X72445714Y9057620D01*
X72826666Y9057620D01*
X72921904Y9010000D01*
X72969523Y8962381D01*
X73017142Y8867143D01*
X73017142Y8724286D01*
X72969523Y8629048D01*
X72921904Y8581429D01*
X72826666Y8533810D01*
X72445714Y8533810D01*
X73398095Y8962381D02*
X73445714Y9010000D01*
X73540952Y9057620D01*
X73779047Y9057620D01*
X73874285Y9010000D01*
X73921904Y8962381D01*
X73969523Y8867143D01*
X73969523Y8771905D01*
X73921904Y8629048D01*
X73350476Y8057620D01*
X73969523Y8057620D01*
X74921904Y8057620D02*
X74350476Y8057620D01*
X74636190Y8057620D02*
X74636190Y9057620D01*
X74540952Y8914762D01*
X74445714Y8819524D01*
X74350476Y8771905D01*
%TO.C,BT1*%
X14290599Y22351412D02*
X14433456Y22303793D01*
X14481075Y22256174D01*
X14528694Y22160936D01*
X14528694Y22018079D01*
X14481075Y21922841D01*
X14433456Y21875222D01*
X14338218Y21827603D01*
X13957266Y21827603D01*
X13957266Y22827603D01*
X14290599Y22827603D01*
X14385837Y22779983D01*
X14433456Y22732364D01*
X14481075Y22637126D01*
X14481075Y22541888D01*
X14433456Y22446650D01*
X14385837Y22399031D01*
X14290599Y22351412D01*
X13957266Y22351412D01*
X14814409Y22827603D02*
X15385837Y22827603D01*
X15100123Y21827603D02*
X15100123Y22827603D01*
X16242980Y21827603D02*
X15671552Y21827603D01*
X15957266Y21827603D02*
X15957266Y22827603D01*
X15862028Y22684745D01*
X15766790Y22589507D01*
X15671552Y22541888D01*
X18504885Y17672841D02*
X19647742Y17672841D01*
X19076314Y17101412D02*
X19076314Y18244269D01*
%TO.C,U2*%
X128412380Y11938096D02*
X129221904Y11938096D01*
X129317142Y11985715D01*
X129364761Y12033334D01*
X129412380Y12128572D01*
X129412380Y12319048D01*
X129364761Y12414286D01*
X129317142Y12461905D01*
X129221904Y12509524D01*
X128412380Y12509524D01*
X128507619Y12938096D02*
X128460000Y12985715D01*
X128412380Y13080953D01*
X128412380Y13319048D01*
X128460000Y13414286D01*
X128507619Y13461905D01*
X128602857Y13509524D01*
X128698095Y13509524D01*
X128840952Y13461905D01*
X129412380Y12890477D01*
X129412380Y13509524D01*
%TO.C,R1*%
X96082380Y78573334D02*
X95606190Y78240000D01*
X96082380Y78001905D02*
X95082380Y78001905D01*
X95082380Y78382858D01*
X95130000Y78478096D01*
X95177619Y78525715D01*
X95272857Y78573334D01*
X95415714Y78573334D01*
X95510952Y78525715D01*
X95558571Y78478096D01*
X95606190Y78382858D01*
X95606190Y78001905D01*
X96082380Y79525715D02*
X96082380Y78954286D01*
X96082380Y79240000D02*
X95082380Y79240000D01*
X95225238Y79144762D01*
X95320476Y79049524D01*
X95368095Y78954286D01*
%TO.C,H1*%
X5498095Y88527620D02*
X5498095Y89527620D01*
X5498095Y89051429D02*
X6069523Y89051429D01*
X6069523Y88527620D02*
X6069523Y89527620D01*
X7069523Y88527620D02*
X6498095Y88527620D01*
X6783809Y88527620D02*
X6783809Y89527620D01*
X6688571Y89384762D01*
X6593333Y89289524D01*
X6498095Y89241905D01*
%TO.C,DS5*%
X48087380Y33890596D02*
X47087380Y33890596D01*
X47087380Y34128691D01*
X47135000Y34271548D01*
X47230238Y34366786D01*
X47325476Y34414405D01*
X47515952Y34462024D01*
X47658809Y34462024D01*
X47849285Y34414405D01*
X47944523Y34366786D01*
X48039761Y34271548D01*
X48087380Y34128691D01*
X48087380Y33890596D01*
X48039761Y34842977D02*
X48087380Y34985834D01*
X48087380Y35223929D01*
X48039761Y35319167D01*
X47992142Y35366786D01*
X47896904Y35414405D01*
X47801666Y35414405D01*
X47706428Y35366786D01*
X47658809Y35319167D01*
X47611190Y35223929D01*
X47563571Y35033453D01*
X47515952Y34938215D01*
X47468333Y34890596D01*
X47373095Y34842977D01*
X47277857Y34842977D01*
X47182619Y34890596D01*
X47135000Y34938215D01*
X47087380Y35033453D01*
X47087380Y35271548D01*
X47135000Y35414405D01*
X47087380Y36319167D02*
X47087380Y35842977D01*
X47563571Y35795358D01*
X47515952Y35842977D01*
X47468333Y35938215D01*
X47468333Y36176310D01*
X47515952Y36271548D01*
X47563571Y36319167D01*
X47658809Y36366786D01*
X47896904Y36366786D01*
X47992142Y36319167D01*
X48039761Y36271548D01*
X48087380Y36176310D01*
X48087380Y35938215D01*
X48039761Y35842977D01*
X47992142Y35795358D01*
%TO.C,SW1*%
X110426666Y59775239D02*
X110569523Y59727620D01*
X110807619Y59727620D01*
X110902857Y59775239D01*
X110950476Y59822858D01*
X110998095Y59918096D01*
X110998095Y60013334D01*
X110950476Y60108572D01*
X110902857Y60156191D01*
X110807619Y60203810D01*
X110617142Y60251429D01*
X110521904Y60299048D01*
X110474285Y60346667D01*
X110426666Y60441905D01*
X110426666Y60537143D01*
X110474285Y60632381D01*
X110521904Y60680000D01*
X110617142Y60727620D01*
X110855238Y60727620D01*
X110998095Y60680000D01*
X111331428Y60727620D02*
X111569523Y59727620D01*
X111760000Y60441905D01*
X111950476Y59727620D01*
X112188571Y60727620D01*
X113093333Y59727620D02*
X112521904Y59727620D01*
X112807619Y59727620D02*
X112807619Y60727620D01*
X112712380Y60584762D01*
X112617142Y60489524D01*
X112521904Y60441905D01*
%TO.C,J5*%
X73142980Y13417620D02*
X73142980Y12703334D01*
X73095361Y12560477D01*
X73000123Y12465239D01*
X72857266Y12417620D01*
X72762028Y12417620D01*
X74095361Y13417620D02*
X73619171Y13417620D01*
X73571552Y12941429D01*
X73619171Y12989048D01*
X73714409Y13036667D01*
X73952504Y13036667D01*
X74047742Y12989048D01*
X74095361Y12941429D01*
X74142980Y12846191D01*
X74142980Y12608096D01*
X74095361Y12512858D01*
X74047742Y12465239D01*
X73952504Y12417620D01*
X73714409Y12417620D01*
X73619171Y12465239D01*
X73571552Y12512858D01*
%TO.C,R17*%
X130882380Y34917143D02*
X130406190Y34583810D01*
X130882380Y34345715D02*
X129882380Y34345715D01*
X129882380Y34726667D01*
X129930000Y34821905D01*
X129977619Y34869524D01*
X130072857Y34917143D01*
X130215714Y34917143D01*
X130310952Y34869524D01*
X130358571Y34821905D01*
X130406190Y34726667D01*
X130406190Y34345715D01*
X130882380Y35869524D02*
X130882380Y35298096D01*
X130882380Y35583810D02*
X129882380Y35583810D01*
X130025238Y35488572D01*
X130120476Y35393334D01*
X130168095Y35298096D01*
X129882380Y36202858D02*
X129882380Y36869524D01*
X130882380Y36440953D01*
%TO.C,U6*%
X91957380Y19548096D02*
X92766904Y19548096D01*
X92862142Y19595715D01*
X92909761Y19643334D01*
X92957380Y19738572D01*
X92957380Y19929048D01*
X92909761Y20024286D01*
X92862142Y20071905D01*
X92766904Y20119524D01*
X91957380Y20119524D01*
X91957380Y21024286D02*
X91957380Y20833810D01*
X92005000Y20738572D01*
X92052619Y20690953D01*
X92195476Y20595715D01*
X92385952Y20548096D01*
X92766904Y20548096D01*
X92862142Y20595715D01*
X92909761Y20643334D01*
X92957380Y20738572D01*
X92957380Y20929048D01*
X92909761Y21024286D01*
X92862142Y21071905D01*
X92766904Y21119524D01*
X92528809Y21119524D01*
X92433571Y21071905D01*
X92385952Y21024286D01*
X92338333Y20929048D01*
X92338333Y20738572D01*
X92385952Y20643334D01*
X92433571Y20595715D01*
X92528809Y20548096D01*
%TO.C,C17*%
X80637142Y9802858D02*
X80589523Y9755239D01*
X80446666Y9707620D01*
X80351428Y9707620D01*
X80208571Y9755239D01*
X80113333Y9850477D01*
X80065714Y9945715D01*
X80018095Y10136191D01*
X80018095Y10279048D01*
X80065714Y10469524D01*
X80113333Y10564762D01*
X80208571Y10660000D01*
X80351428Y10707620D01*
X80446666Y10707620D01*
X80589523Y10660000D01*
X80637142Y10612381D01*
X81589523Y9707620D02*
X81018095Y9707620D01*
X81303809Y9707620D02*
X81303809Y10707620D01*
X81208571Y10564762D01*
X81113333Y10469524D01*
X81018095Y10421905D01*
X81922857Y10707620D02*
X82589523Y10707620D01*
X82160952Y9707620D01*
%TO.C,TP1*%
X79764380Y11438096D02*
X79764380Y12009524D01*
X80764380Y11723810D02*
X79764380Y11723810D01*
X80764380Y12342858D02*
X79764380Y12342858D01*
X79764380Y12723810D01*
X79812000Y12819048D01*
X79859619Y12866667D01*
X79954857Y12914286D01*
X80097714Y12914286D01*
X80192952Y12866667D01*
X80240571Y12819048D01*
X80288190Y12723810D01*
X80288190Y12342858D01*
X80764380Y13866667D02*
X80764380Y13295239D01*
X80764380Y13580953D02*
X79764380Y13580953D01*
X79907238Y13485715D01*
X80002476Y13390477D01*
X80050095Y13295239D01*
%TO.C,SW2*%
X107886666Y80875239D02*
X108029523Y80827620D01*
X108267619Y80827620D01*
X108362857Y80875239D01*
X108410476Y80922858D01*
X108458095Y81018096D01*
X108458095Y81113334D01*
X108410476Y81208572D01*
X108362857Y81256191D01*
X108267619Y81303810D01*
X108077142Y81351429D01*
X107981904Y81399048D01*
X107934285Y81446667D01*
X107886666Y81541905D01*
X107886666Y81637143D01*
X107934285Y81732381D01*
X107981904Y81780000D01*
X108077142Y81827620D01*
X108315238Y81827620D01*
X108458095Y81780000D01*
X108791428Y81827620D02*
X109029523Y80827620D01*
X109220000Y81541905D01*
X109410476Y80827620D01*
X109648571Y81827620D01*
X109981904Y81732381D02*
X110029523Y81780000D01*
X110124761Y81827620D01*
X110362857Y81827620D01*
X110458095Y81780000D01*
X110505714Y81732381D01*
X110553333Y81637143D01*
X110553333Y81541905D01*
X110505714Y81399048D01*
X109934285Y80827620D01*
X110553333Y80827620D01*
%TO.C,R5*%
X103973333Y53777620D02*
X103640000Y54253810D01*
X103401904Y53777620D02*
X103401904Y54777620D01*
X103782857Y54777620D01*
X103878095Y54730000D01*
X103925714Y54682381D01*
X103973333Y54587143D01*
X103973333Y54444286D01*
X103925714Y54349048D01*
X103878095Y54301429D01*
X103782857Y54253810D01*
X103401904Y54253810D01*
X104878095Y54777620D02*
X104401904Y54777620D01*
X104354285Y54301429D01*
X104401904Y54349048D01*
X104497142Y54396667D01*
X104735238Y54396667D01*
X104830476Y54349048D01*
X104878095Y54301429D01*
X104925714Y54206191D01*
X104925714Y53968096D01*
X104878095Y53872858D01*
X104830476Y53825239D01*
X104735238Y53777620D01*
X104497142Y53777620D01*
X104401904Y53825239D01*
X104354285Y53872858D01*
%TO.C,R13*%
X111117142Y73207620D02*
X110783809Y73683810D01*
X110545714Y73207620D02*
X110545714Y74207620D01*
X110926666Y74207620D01*
X111021904Y74160000D01*
X111069523Y74112381D01*
X111117142Y74017143D01*
X111117142Y73874286D01*
X111069523Y73779048D01*
X111021904Y73731429D01*
X110926666Y73683810D01*
X110545714Y73683810D01*
X112069523Y73207620D02*
X111498095Y73207620D01*
X111783809Y73207620D02*
X111783809Y74207620D01*
X111688571Y74064762D01*
X111593333Y73969524D01*
X111498095Y73921905D01*
X112402857Y74207620D02*
X113021904Y74207620D01*
X112688571Y73826667D01*
X112831428Y73826667D01*
X112926666Y73779048D01*
X112974285Y73731429D01*
X113021904Y73636191D01*
X113021904Y73398096D01*
X112974285Y73302858D01*
X112926666Y73255239D01*
X112831428Y73207620D01*
X112545714Y73207620D01*
X112450476Y73255239D01*
X112402857Y73302858D01*
%TO.C,SW3*%
X57086666Y80875239D02*
X57229523Y80827620D01*
X57467619Y80827620D01*
X57562857Y80875239D01*
X57610476Y80922858D01*
X57658095Y81018096D01*
X57658095Y81113334D01*
X57610476Y81208572D01*
X57562857Y81256191D01*
X57467619Y81303810D01*
X57277142Y81351429D01*
X57181904Y81399048D01*
X57134285Y81446667D01*
X57086666Y81541905D01*
X57086666Y81637143D01*
X57134285Y81732381D01*
X57181904Y81780000D01*
X57277142Y81827620D01*
X57515238Y81827620D01*
X57658095Y81780000D01*
X57991428Y81827620D02*
X58229523Y80827620D01*
X58420000Y81541905D01*
X58610476Y80827620D01*
X58848571Y81827620D01*
X59134285Y81827620D02*
X59753333Y81827620D01*
X59420000Y81446667D01*
X59562857Y81446667D01*
X59658095Y81399048D01*
X59705714Y81351429D01*
X59753333Y81256191D01*
X59753333Y81018096D01*
X59705714Y80922858D01*
X59658095Y80875239D01*
X59562857Y80827620D01*
X59277142Y80827620D01*
X59181904Y80875239D01*
X59134285Y80922858D01*
%TO.C,TP4*%
X125738095Y50805620D02*
X126309523Y50805620D01*
X126023809Y49805620D02*
X126023809Y50805620D01*
X126642857Y49805620D02*
X126642857Y50805620D01*
X127023809Y50805620D01*
X127119047Y50758000D01*
X127166666Y50710381D01*
X127214285Y50615143D01*
X127214285Y50472286D01*
X127166666Y50377048D01*
X127119047Y50329429D01*
X127023809Y50281810D01*
X126642857Y50281810D01*
X128071428Y50472286D02*
X128071428Y49805620D01*
X127833333Y50853239D02*
X127595238Y50138953D01*
X128214285Y50138953D01*
%TO.C,C12*%
X133327142Y14597143D02*
X133374761Y14549524D01*
X133422380Y14406667D01*
X133422380Y14311429D01*
X133374761Y14168572D01*
X133279523Y14073334D01*
X133184285Y14025715D01*
X132993809Y13978096D01*
X132850952Y13978096D01*
X132660476Y14025715D01*
X132565238Y14073334D01*
X132470000Y14168572D01*
X132422380Y14311429D01*
X132422380Y14406667D01*
X132470000Y14549524D01*
X132517619Y14597143D01*
X133422380Y15549524D02*
X133422380Y14978096D01*
X133422380Y15263810D02*
X132422380Y15263810D01*
X132565238Y15168572D01*
X132660476Y15073334D01*
X132708095Y14978096D01*
X132517619Y15930477D02*
X132470000Y15978096D01*
X132422380Y16073334D01*
X132422380Y16311429D01*
X132470000Y16406667D01*
X132517619Y16454286D01*
X132612857Y16501905D01*
X132708095Y16501905D01*
X132850952Y16454286D01*
X133422380Y15882858D01*
X133422380Y16501905D01*
%TO.C,TP2*%
X83814380Y11438096D02*
X83814380Y12009524D01*
X84814380Y11723810D02*
X83814380Y11723810D01*
X84814380Y12342858D02*
X83814380Y12342858D01*
X83814380Y12723810D01*
X83862000Y12819048D01*
X83909619Y12866667D01*
X84004857Y12914286D01*
X84147714Y12914286D01*
X84242952Y12866667D01*
X84290571Y12819048D01*
X84338190Y12723810D01*
X84338190Y12342858D01*
X83909619Y13295239D02*
X83862000Y13342858D01*
X83814380Y13438096D01*
X83814380Y13676191D01*
X83862000Y13771429D01*
X83909619Y13819048D01*
X84004857Y13866667D01*
X84100095Y13866667D01*
X84242952Y13819048D01*
X84814380Y13247620D01*
X84814380Y13866667D01*
%TO.C,U4*%
X93642397Y23194410D02*
X94451921Y23194410D01*
X94547159Y23242029D01*
X94594778Y23289648D01*
X94642397Y23384886D01*
X94642397Y23575362D01*
X94594778Y23670600D01*
X94547159Y23718219D01*
X94451921Y23765838D01*
X93642397Y23765838D01*
X93975731Y24670600D02*
X94642397Y24670600D01*
X93594778Y24432505D02*
X94309064Y24194410D01*
X94309064Y24813457D01*
%TO.C,C1*%
X115547142Y12533334D02*
X115594761Y12485715D01*
X115642380Y12342858D01*
X115642380Y12247620D01*
X115594761Y12104762D01*
X115499523Y12009524D01*
X115404285Y11961905D01*
X115213809Y11914286D01*
X115070952Y11914286D01*
X114880476Y11961905D01*
X114785238Y12009524D01*
X114690000Y12104762D01*
X114642380Y12247620D01*
X114642380Y12342858D01*
X114690000Y12485715D01*
X114737619Y12533334D01*
X115642380Y13485715D02*
X115642380Y12914286D01*
X115642380Y13200000D02*
X114642380Y13200000D01*
X114785238Y13104762D01*
X114880476Y13009524D01*
X114928095Y12914286D01*
%TO.C,R12*%
X111117142Y66477620D02*
X110783809Y66953810D01*
X110545714Y66477620D02*
X110545714Y67477620D01*
X110926666Y67477620D01*
X111021904Y67430000D01*
X111069523Y67382381D01*
X111117142Y67287143D01*
X111117142Y67144286D01*
X111069523Y67049048D01*
X111021904Y67001429D01*
X110926666Y66953810D01*
X110545714Y66953810D01*
X112069523Y66477620D02*
X111498095Y66477620D01*
X111783809Y66477620D02*
X111783809Y67477620D01*
X111688571Y67334762D01*
X111593333Y67239524D01*
X111498095Y67191905D01*
X112450476Y67382381D02*
X112498095Y67430000D01*
X112593333Y67477620D01*
X112831428Y67477620D01*
X112926666Y67430000D01*
X112974285Y67382381D01*
X113021904Y67287143D01*
X113021904Y67191905D01*
X112974285Y67049048D01*
X112402857Y66477620D01*
X113021904Y66477620D01*
%TO.C,R10*%
X17137142Y31677620D02*
X16803809Y32153810D01*
X16565714Y31677620D02*
X16565714Y32677620D01*
X16946666Y32677620D01*
X17041904Y32630000D01*
X17089523Y32582381D01*
X17137142Y32487143D01*
X17137142Y32344286D01*
X17089523Y32249048D01*
X17041904Y32201429D01*
X16946666Y32153810D01*
X16565714Y32153810D01*
X18089523Y31677620D02*
X17518095Y31677620D01*
X17803809Y31677620D02*
X17803809Y32677620D01*
X17708571Y32534762D01*
X17613333Y32439524D01*
X17518095Y32391905D01*
X18708571Y32677620D02*
X18803809Y32677620D01*
X18899047Y32630000D01*
X18946666Y32582381D01*
X18994285Y32487143D01*
X19041904Y32296667D01*
X19041904Y32058572D01*
X18994285Y31868096D01*
X18946666Y31772858D01*
X18899047Y31725239D01*
X18803809Y31677620D01*
X18708571Y31677620D01*
X18613333Y31725239D01*
X18565714Y31772858D01*
X18518095Y31868096D01*
X18470476Y32058572D01*
X18470476Y32296667D01*
X18518095Y32487143D01*
X18565714Y32582381D01*
X18613333Y32630000D01*
X18708571Y32677620D01*
%TO.C,R16*%
X139262380Y42537143D02*
X138786190Y42203810D01*
X139262380Y41965715D02*
X138262380Y41965715D01*
X138262380Y42346667D01*
X138310000Y42441905D01*
X138357619Y42489524D01*
X138452857Y42537143D01*
X138595714Y42537143D01*
X138690952Y42489524D01*
X138738571Y42441905D01*
X138786190Y42346667D01*
X138786190Y41965715D01*
X139262380Y43489524D02*
X139262380Y42918096D01*
X139262380Y43203810D02*
X138262380Y43203810D01*
X138405238Y43108572D01*
X138500476Y43013334D01*
X138548095Y42918096D01*
X138262380Y44346667D02*
X138262380Y44156191D01*
X138310000Y44060953D01*
X138357619Y44013334D01*
X138500476Y43918096D01*
X138690952Y43870477D01*
X139071904Y43870477D01*
X139167142Y43918096D01*
X139214761Y43965715D01*
X139262380Y44060953D01*
X139262380Y44251429D01*
X139214761Y44346667D01*
X139167142Y44394286D01*
X139071904Y44441905D01*
X138833809Y44441905D01*
X138738571Y44394286D01*
X138690952Y44346667D01*
X138643333Y44251429D01*
X138643333Y44060953D01*
X138690952Y43965715D01*
X138738571Y43918096D01*
X138833809Y43870477D01*
D12*
%TO.C,U10*%
X129540000Y38080000D02*
X131490000Y38080000D01*
X129540000Y43200000D02*
X126090000Y43200000D01*
X129540000Y43200000D02*
X131490000Y43200000D01*
X129540000Y38080000D02*
X127590000Y38080000D01*
%TO.C,TP3*%
X133280000Y48260000D02*
G75*
G03*
X133280000Y48260000I-1200000J0D01*
G01*
%TO.C,J1*%
X130750000Y66040000D02*
X133410000Y66040000D01*
X130750000Y67310000D02*
X130750000Y68640000D01*
X130750000Y53280000D02*
X133410000Y53280000D01*
X130750000Y66040000D02*
X130750000Y53280000D01*
X133410000Y66040000D02*
X133410000Y53280000D01*
X130750000Y68640000D02*
X132080000Y68640000D01*
%TO.C,D1*%
X71975000Y77160000D02*
X71975000Y75240000D01*
X71975000Y75240000D02*
X74660000Y75240000D01*
X74660000Y77160000D02*
X71975000Y77160000D01*
%TO.C,Y2*%
X112710000Y45170000D02*
X112710000Y46270000D01*
X110810000Y45170000D02*
X110810000Y46270000D01*
X110860000Y43770000D02*
X112660000Y43770000D01*
%TO.C,Y1*%
X69130000Y74610000D02*
X68030000Y74610000D01*
X70530000Y72760000D02*
X70530000Y74560000D01*
X69130000Y72710000D02*
X68030000Y72710000D01*
%TO.C,U3*%
X116740000Y48310000D02*
X116740000Y38030000D01*
X116740000Y38030000D02*
X122040000Y38030000D01*
X122040000Y48310000D02*
X120390000Y48310000D01*
X118390000Y48310000D02*
X116740000Y48310000D01*
X122040000Y38030000D02*
X122040000Y48310000D01*
X118390000Y48310000D02*
G75*
G03*
X120390000Y48310000I1000000J0D01*
G01*
D11*
%TO.C,D2*%
X42940000Y78500000D02*
X42940000Y76500000D01*
X41690000Y72500000D02*
X42190000Y72500000D01*
X40940000Y75500000D02*
X38940000Y75500000D01*
X14940000Y48500000D02*
X12940000Y48500000D01*
X38940000Y75250000D02*
X38940000Y75750000D01*
X12940000Y78500000D02*
X14940000Y78500000D01*
X12940000Y76500000D02*
X12940000Y78500000D01*
X42940000Y50500000D02*
X42940000Y48500000D01*
X13940000Y64500000D02*
X13940000Y62500000D01*
X12940000Y48500000D02*
X12940000Y50500000D01*
X42190000Y72500000D02*
X41940000Y71750000D01*
X12940000Y64500000D02*
X12940000Y66500000D01*
X12940000Y62500000D02*
X12940000Y60500000D01*
X40940000Y78500000D02*
X42940000Y78500000D01*
X42940000Y48500000D02*
X40940000Y48500000D01*
X13940000Y62500000D02*
X12940000Y62500000D01*
X12940000Y64500000D02*
X13940000Y64500000D01*
X38940000Y75750000D02*
X38190000Y75500000D01*
X41940000Y74500000D02*
X41940000Y72500000D01*
X38190000Y75500000D02*
X38940000Y75250000D01*
X41940000Y71750000D02*
X41690000Y72500000D01*
X16940000Y72390000D02*
G75*
G03*
X16940000Y72390000I-1000000J0D01*
G01*
D12*
%TO.C,U1*%
X57090000Y68680000D02*
X57090000Y63380000D01*
X92770000Y67030000D02*
X92770000Y68680000D01*
X92770000Y63380000D02*
X92770000Y65030000D01*
X92770000Y68680000D02*
X57090000Y68680000D01*
X57090000Y63380000D02*
X92770000Y63380000D01*
X92770000Y67030000D02*
G75*
G03*
X92770000Y65030000I0J-1000000D01*
G01*
%TO.C,BT1*%
X14826314Y14729983D02*
X17276314Y14729983D01*
X14276314Y20279983D02*
X14276314Y15279983D01*
X17276314Y20829983D02*
X14826314Y20829983D01*
X14276314Y15279983D02*
G75*
G03*
X14826314Y14729983I549999J-1D01*
G01*
X17981083Y14236498D02*
G75*
G03*
X17276314Y14729983I-704769J-256515D01*
G01*
X14826314Y20829983D02*
G75*
G03*
X14276314Y20279983I-1J-549999D01*
G01*
X41589757Y17263992D02*
G75*
G03*
X17976314Y21299983I-12063443J515991D01*
G01*
X17976314Y14259983D02*
G75*
G03*
X41589757Y18295974I11550000J3520000D01*
G01*
X17276314Y20829983D02*
G75*
G03*
X17981083Y21323468I0J750000D01*
G01*
%TO.C,U2*%
X127910000Y13670000D02*
X127910000Y15170000D01*
X121280000Y15170000D02*
X121280000Y16270000D01*
X121010000Y13670000D02*
X121010000Y15170000D01*
X127640000Y15170000D02*
X127640000Y18000000D01*
X121010000Y15170000D02*
X121280000Y15170000D01*
X127910000Y15170000D02*
X127640000Y15170000D01*
%TO.C,G\u002A\u002A\u002A*%
G36*
X122653717Y24468862D02*
G01*
X122723704Y24423660D01*
X122740649Y24306715D01*
X122741010Y24251869D01*
X122734338Y24111999D01*
X122690586Y24047116D01*
X122574154Y24028413D01*
X122463554Y24027374D01*
X122244121Y24003621D01*
X122087908Y23917774D01*
X122036142Y23867753D01*
X121967135Y23780933D01*
X121920587Y23676448D01*
X121890261Y23525397D01*
X121869921Y23298878D01*
X121856200Y23033914D01*
X121826215Y22359697D01*
X121458182Y22359697D01*
X121458182Y24412222D01*
X121650606Y24412222D01*
X121803373Y24383537D01*
X121843030Y24316010D01*
X121859806Y24235407D01*
X121923951Y24238440D01*
X122056189Y24327892D01*
X122082094Y24348081D01*
X122294987Y24449292D01*
X122493094Y24476364D01*
X122653717Y24468862D01*
G37*
G36*
X118718595Y33957138D02*
G01*
X118924596Y33937222D01*
X118941858Y32510076D01*
X118959121Y31082929D01*
X118507677Y31082929D01*
X118507677Y32301616D01*
X117096566Y32301616D01*
X117096566Y31082929D01*
X116645121Y31082929D01*
X116662384Y32510076D01*
X116679646Y33937222D01*
X117064495Y33937222D01*
X117082966Y33341769D01*
X117101436Y32746315D01*
X118475606Y32782677D01*
X118494100Y33379865D01*
X118512593Y33977054D01*
X118718595Y33957138D01*
G37*
G36*
X126967113Y25029557D02*
G01*
X127066497Y24940236D01*
X127101314Y24760047D01*
X127102626Y24693996D01*
X127107781Y24519389D01*
X127142010Y24437730D01*
X127233463Y24413689D01*
X127327121Y24412222D01*
X127478938Y24400242D01*
X127541089Y24346329D01*
X127551616Y24251869D01*
X127534843Y24143428D01*
X127459365Y24099035D01*
X127327121Y24091515D01*
X127102626Y24091515D01*
X127102626Y23490026D01*
X127111219Y23154936D01*
X127142281Y22931319D01*
X127203739Y22803190D01*
X127303518Y22754566D01*
X127449545Y22769462D01*
X127458805Y22771738D01*
X127570212Y22789036D01*
X127609466Y22741470D01*
X127603956Y22602512D01*
X127579739Y22466219D01*
X127515739Y22402625D01*
X127371976Y22379023D01*
X127327121Y22376038D01*
X127127635Y22384218D01*
X126964165Y22424529D01*
X126942273Y22435524D01*
X126819442Y22521785D01*
X126737474Y22627015D01*
X126688286Y22777619D01*
X126663791Y23000001D01*
X126655905Y23320565D01*
X126655676Y23371528D01*
X126653636Y24030581D01*
X126461212Y24069066D01*
X126318117Y24123548D01*
X126269882Y24227274D01*
X126268788Y24255626D01*
X126301093Y24371502D01*
X126420169Y24420683D01*
X126445177Y24423997D01*
X126553089Y24448504D01*
X126608827Y24513576D01*
X126634149Y24655300D01*
X126641115Y24748965D01*
X126662799Y24938605D01*
X126705069Y25030158D01*
X126780187Y25053636D01*
X126967113Y25029557D01*
G37*
G36*
X125531119Y24436819D02*
G01*
X125713392Y24344640D01*
X125844488Y24202209D01*
X125933750Y24003610D01*
X125985443Y23729808D01*
X126003830Y23361766D01*
X126000009Y23065253D01*
X125980151Y22391768D01*
X125595303Y22391768D01*
X125563232Y23150812D01*
X125546714Y23482091D01*
X125527320Y23708854D01*
X125500674Y23854856D01*
X125462398Y23943857D01*
X125408116Y23999614D01*
X125406655Y24000686D01*
X125193828Y24083061D01*
X124958709Y24061783D01*
X124784606Y23969131D01*
X124718117Y23905597D01*
X124672597Y23825124D01*
X124642439Y23701741D01*
X124622036Y23509476D01*
X124605779Y23222358D01*
X124601111Y23119258D01*
X124569040Y22391768D01*
X124360581Y22371668D01*
X124152121Y22351569D01*
X124152121Y24412222D01*
X124344545Y24412222D01*
X124497312Y24383537D01*
X124536970Y24316010D01*
X124553746Y24235407D01*
X124617890Y24238440D01*
X124750129Y24327892D01*
X124776033Y24348081D01*
X124994867Y24449629D01*
X125264849Y24479141D01*
X125531119Y24436819D01*
G37*
G36*
X111873275Y29539944D02*
G01*
X112067046Y29860970D01*
X112106616Y29906385D01*
X112232974Y30044739D01*
X111763617Y30852470D01*
X111294260Y31660202D01*
X107797782Y31660202D01*
X107710263Y31450740D01*
X107541439Y31190715D01*
X107284655Y30961819D01*
X106980156Y30790765D01*
X106668190Y30704266D01*
X106577374Y30698796D01*
X106330067Y30739277D01*
X106055898Y30843749D01*
X105819960Y30986758D01*
X105800541Y31002564D01*
X105562266Y31280395D01*
X105418535Y31614749D01*
X105378694Y31921373D01*
X105951645Y31921373D01*
X106005666Y31694492D01*
X106140283Y31511302D01*
X106332036Y31386615D01*
X106557470Y31335243D01*
X106793127Y31371998D01*
X107015549Y31511692D01*
X107031297Y31526985D01*
X107172536Y31714965D01*
X107218417Y31923277D01*
X107218788Y31948838D01*
X107160410Y32203546D01*
X107003582Y32406802D01*
X106775767Y32531712D01*
X106596579Y32558182D01*
X106314235Y32509689D01*
X106109859Y32360834D01*
X106001675Y32177133D01*
X105951645Y31921373D01*
X105378694Y31921373D01*
X105371619Y31975826D01*
X105423788Y32333825D01*
X105577313Y32658945D01*
X105665805Y32771119D01*
X105913259Y32959492D01*
X106234840Y33084300D01*
X106588654Y33136710D01*
X106932809Y33107890D01*
X107070294Y33067233D01*
X107324633Y32918138D01*
X107555307Y32691676D01*
X107708609Y32445934D01*
X107797782Y32237475D01*
X109684511Y32237475D01*
X110244843Y32236478D01*
X110689986Y32233085D01*
X111033026Y32226694D01*
X111287044Y32216704D01*
X111465124Y32202513D01*
X111580348Y32183518D01*
X111645800Y32159117D01*
X111662238Y32146477D01*
X111724590Y32061065D01*
X111836534Y31885536D01*
X111984772Y31641582D01*
X112156005Y31350895D01*
X112252076Y31184356D01*
X112750915Y30313232D01*
X113021480Y30313232D01*
X113377369Y30256362D01*
X113686751Y30100080D01*
X113937965Y29865883D01*
X114119353Y29575263D01*
X114219255Y29249717D01*
X114226010Y28910739D01*
X114127961Y28579824D01*
X114041757Y28432330D01*
X113771821Y28148547D01*
X113439128Y27963655D01*
X113069596Y27884367D01*
X112689141Y27917398D01*
X112425036Y28013489D01*
X112125649Y28226763D01*
X111916665Y28510503D01*
X111802199Y28840253D01*
X111787509Y29166158D01*
X112364031Y29166158D01*
X112379220Y28924663D01*
X112421749Y28817728D01*
X112595815Y28597765D01*
X112824576Y28475238D01*
X113077376Y28455448D01*
X113323559Y28543701D01*
X113445439Y28640622D01*
X113599934Y28872521D01*
X113643706Y29125229D01*
X113581106Y29368181D01*
X113416483Y29570809D01*
X113302529Y29644760D01*
X113052246Y29714465D01*
X112811452Y29680984D01*
X112601949Y29564791D01*
X112445541Y29386358D01*
X112364031Y29166158D01*
X111787509Y29166158D01*
X111786364Y29191553D01*
X111873275Y29539944D01*
G37*
G36*
X120488036Y28137559D02*
G01*
X120648681Y28441102D01*
X120902292Y28665154D01*
X121237309Y28797265D01*
X121412959Y28823519D01*
X121772069Y28798182D01*
X122077981Y28672320D01*
X122320493Y28466272D01*
X122489407Y28200375D01*
X122574521Y27894966D01*
X122565637Y27570384D01*
X122452553Y27246965D01*
X122309363Y27036215D01*
X122043698Y26814403D01*
X121717955Y26686277D01*
X121368429Y26660849D01*
X121073366Y26729232D01*
X120775953Y26912420D01*
X120565878Y27183296D01*
X120451354Y27528574D01*
X120438769Y27682946D01*
X120846083Y27682946D01*
X120924068Y27418591D01*
X121099475Y27207611D01*
X121160123Y27165579D01*
X121372449Y27064141D01*
X121563313Y27052960D01*
X121742613Y27104563D01*
X121886765Y27200744D01*
X122023610Y27354110D01*
X122038794Y27377164D01*
X122137131Y27632566D01*
X122134529Y27890841D01*
X122045748Y28125763D01*
X121885549Y28311110D01*
X121668692Y28420657D01*
X121444105Y28433721D01*
X121168789Y28350608D01*
X120979955Y28178266D01*
X120878349Y27964315D01*
X120846083Y27682946D01*
X120438769Y27682946D01*
X120431919Y27766976D01*
X120488036Y28137559D01*
G37*
G36*
X125920579Y33127270D02*
G01*
X125970860Y33092466D01*
X126018969Y33015344D01*
X126072912Y32879523D01*
X126140697Y32668620D01*
X126230328Y32366253D01*
X126337878Y31996944D01*
X126393663Y31832617D01*
X126441814Y31735538D01*
X126456019Y31724343D01*
X126488948Y31781797D01*
X126549451Y31937951D01*
X126628706Y32168492D01*
X126711992Y32429899D01*
X126929321Y33135455D01*
X127140471Y33135455D01*
X127295430Y33119619D01*
X127384838Y33081181D01*
X127387143Y33077978D01*
X127419585Y32996725D01*
X127480585Y32819985D01*
X127561018Y32574895D01*
X127640292Y32325289D01*
X127857919Y31630077D01*
X127997188Y32110165D01*
X128104675Y32479513D01*
X128184900Y32743864D01*
X128246869Y32921269D01*
X128299585Y33029780D01*
X128352053Y33087449D01*
X128413277Y33112329D01*
X128492263Y33122471D01*
X128502642Y33123483D01*
X128661181Y33115418D01*
X128707022Y33059342D01*
X128688672Y32971525D01*
X128637511Y32784964D01*
X128560311Y32522934D01*
X128463845Y32208713D01*
X128407236Y32029015D01*
X128106590Y31082929D01*
X127621266Y31082929D01*
X127419976Y31740379D01*
X127332802Y32015150D01*
X127254410Y32244282D01*
X127194729Y32399757D01*
X127167922Y32451497D01*
X127130243Y32416087D01*
X127065908Y32279590D01*
X126984140Y32064079D01*
X126899907Y31810083D01*
X126682657Y31115000D01*
X126443136Y31095062D01*
X126255385Y31102495D01*
X126175042Y31159203D01*
X126108223Y31359837D01*
X126022940Y31621680D01*
X125927087Y31919789D01*
X125828557Y32229218D01*
X125735245Y32525025D01*
X125655044Y32782263D01*
X125595847Y32975989D01*
X125565549Y33081259D01*
X125563232Y33092546D01*
X125619565Y33121241D01*
X125757571Y33135197D01*
X125781480Y33135455D01*
X125860121Y33136139D01*
X125920579Y33127270D01*
G37*
G36*
X119117020Y24412222D02*
G01*
X119283761Y24390990D01*
X119341260Y24323781D01*
X119341515Y24316953D01*
X119360903Y24266120D01*
X119436629Y24284661D01*
X119549975Y24348784D01*
X119833162Y24454012D01*
X120153324Y24468965D01*
X120456414Y24393767D01*
X120547896Y24346516D01*
X120768864Y24141627D01*
X120919906Y23858661D01*
X120993919Y23531389D01*
X120983804Y23193577D01*
X120882458Y22878997D01*
X120863783Y22844332D01*
X120658930Y22591134D01*
X120394136Y22419719D01*
X120098894Y22338176D01*
X119802694Y22354588D01*
X119535030Y22477043D01*
X119532083Y22479210D01*
X119341515Y22620103D01*
X119341515Y21525859D01*
X118892525Y21525859D01*
X118892525Y23264771D01*
X119349360Y23264771D01*
X119383603Y23119083D01*
X119477524Y22978034D01*
X119500670Y22950091D01*
X119640005Y22812876D01*
X119787763Y22754592D01*
X119950858Y22744545D01*
X120151948Y22762576D01*
X120292152Y22835852D01*
X120394147Y22941891D01*
X120528840Y23182137D01*
X120565877Y23439879D01*
X120515741Y23687398D01*
X120388916Y23896970D01*
X120195886Y24040876D01*
X119959369Y24091515D01*
X119693266Y24037348D01*
X119498953Y23879651D01*
X119383459Y23625627D01*
X119358449Y23475484D01*
X119349360Y23264771D01*
X118892525Y23264771D01*
X118892525Y24412222D01*
X119117020Y24412222D01*
G37*
G36*
X101006176Y24487236D02*
G01*
X100923401Y24628636D01*
X100432812Y25470556D01*
X100087978Y25508671D01*
X99808963Y25553117D01*
X99602972Y25630471D01*
X99419355Y25766988D01*
X99247309Y25944425D01*
X99041289Y26259225D01*
X98948848Y26604363D01*
X98960127Y26827432D01*
X99532971Y26827432D01*
X99542078Y26601430D01*
X99658736Y26372126D01*
X99658960Y26371841D01*
X99881850Y26168761D01*
X100130722Y26090812D01*
X100402103Y26138814D01*
X100485223Y26176775D01*
X100690653Y26346262D01*
X100798654Y26572265D01*
X100805053Y26823216D01*
X100705681Y27067544D01*
X100617156Y27175237D01*
X100400862Y27321120D01*
X100172145Y27363109D01*
X99951002Y27317970D01*
X99757428Y27202467D01*
X99611419Y27033366D01*
X99532971Y26827432D01*
X98960127Y26827432D01*
X98966692Y26957280D01*
X99091531Y27295422D01*
X99320071Y27596230D01*
X99511334Y27753360D01*
X99670256Y27843192D01*
X99844452Y27890643D01*
X100082972Y27907241D01*
X100169043Y27907929D01*
X100422086Y27900041D01*
X100600070Y27866771D01*
X100755748Y27793711D01*
X100873585Y27715505D01*
X101166570Y27441702D01*
X101342595Y27122551D01*
X101400810Y26767254D01*
X101340362Y26385014D01*
X101160398Y25985034D01*
X101049591Y25814842D01*
X101029705Y25753541D01*
X101046962Y25658510D01*
X101109167Y25511708D01*
X101224124Y25295096D01*
X101399638Y24990633D01*
X101424199Y24948933D01*
X101873225Y24187727D01*
X103614128Y24170664D01*
X105355031Y24153602D01*
X105484550Y24407479D01*
X105708468Y24718816D01*
X106000889Y24937772D01*
X106337587Y25059618D01*
X106694339Y25079626D01*
X107046920Y24993068D01*
X107371106Y24795214D01*
X107389538Y24779338D01*
X107635953Y24494726D01*
X107767222Y24165796D01*
X107796060Y23873256D01*
X107740329Y23481715D01*
X107579946Y23148714D01*
X107325129Y22890669D01*
X107108600Y22768716D01*
X106858961Y22704381D01*
X106558762Y22686496D01*
X106264873Y22714083D01*
X106034164Y22786166D01*
X106032172Y22787212D01*
X105768469Y22956581D01*
X105582931Y23160043D01*
X105478841Y23337854D01*
X105356080Y23578384D01*
X103473065Y23578384D01*
X102925133Y23579066D01*
X102491496Y23581604D01*
X102158171Y23586737D01*
X101911175Y23595204D01*
X101736525Y23607745D01*
X101620237Y23625098D01*
X101548330Y23648002D01*
X101506818Y23677195D01*
X101502020Y23682550D01*
X101439744Y23772960D01*
X101327207Y23952152D01*
X101301763Y23994059D01*
X105961986Y23994059D01*
X105964291Y23765591D01*
X106061823Y23536609D01*
X106230166Y23352874D01*
X106337392Y23290487D01*
X106600103Y23230841D01*
X106837715Y23293225D01*
X107042399Y23457296D01*
X107192513Y23694383D01*
X107218138Y23942595D01*
X107119515Y24183929D01*
X107031297Y24288873D01*
X106802817Y24439150D01*
X106552411Y24480907D01*
X106310609Y24422563D01*
X106107941Y24272534D01*
X105974935Y24039237D01*
X105961986Y23994059D01*
X101301763Y23994059D01*
X101178115Y24197715D01*
X101006176Y24487236D01*
G37*
G36*
X129282028Y28772071D02*
G01*
X129506738Y28631127D01*
X129535056Y28607802D01*
X129688724Y28445878D01*
X129720488Y28318899D01*
X129630705Y28222979D01*
X129573033Y28196932D01*
X129445729Y28172170D01*
X129332225Y28225193D01*
X129247450Y28302523D01*
X129116390Y28409863D01*
X128980223Y28445114D01*
X128813633Y28432818D01*
X128551171Y28341707D01*
X128364076Y28163968D01*
X128262805Y27923623D01*
X128257815Y27644691D01*
X128350359Y27368577D01*
X128513355Y27178007D01*
X128736999Y27078202D01*
X128987000Y27073653D01*
X129229064Y27168854D01*
X129321865Y27241290D01*
X129450327Y27326616D01*
X129588429Y27315747D01*
X129626536Y27302265D01*
X129755954Y27236903D01*
X129782992Y27161042D01*
X129707174Y27049198D01*
X129620177Y26961889D01*
X129319430Y26758766D01*
X128973679Y26663765D01*
X128614843Y26682564D01*
X128414345Y26747393D01*
X128172632Y26909816D01*
X127970298Y27148486D01*
X127846365Y27415086D01*
X127834904Y27464890D01*
X127814198Y27856602D01*
X127897936Y28203942D01*
X128075099Y28490164D01*
X128334670Y28698524D01*
X128665630Y28812274D01*
X128727088Y28820874D01*
X129038133Y28831104D01*
X129282028Y28772071D01*
G37*
G36*
X101886957Y30325615D02*
G01*
X102047505Y30656923D01*
X102301156Y30911383D01*
X102636512Y31078067D01*
X103042177Y31146050D01*
X103102073Y31147071D01*
X103415235Y31147071D01*
X104274714Y32626132D01*
X104509598Y33028700D01*
X104728922Y33401505D01*
X104922823Y33728030D01*
X105042547Y33927088D01*
X108144193Y33927088D01*
X108197845Y33700009D01*
X108295730Y33564557D01*
X108551520Y33400461D01*
X108809437Y33361784D01*
X109057482Y33448223D01*
X109223207Y33587746D01*
X109373217Y33828091D01*
X109398692Y34077510D01*
X109299860Y34318934D01*
X109212106Y34423217D01*
X108982967Y34570000D01*
X108715199Y34616315D01*
X108454318Y34555058D01*
X108433922Y34544664D01*
X108268176Y34391576D01*
X108169619Y34171664D01*
X108144193Y33927088D01*
X105042547Y33927088D01*
X105081440Y33991753D01*
X105194911Y34176157D01*
X105251095Y34261738D01*
X105296640Y34318174D01*
X105349251Y34359099D01*
X105428562Y34387003D01*
X105554206Y34404381D01*
X105745818Y34413724D01*
X106023030Y34417526D01*
X106405478Y34418279D01*
X106484170Y34418283D01*
X107600342Y34418283D01*
X107698134Y34607391D01*
X107892397Y34856641D01*
X108171412Y35055342D01*
X108495598Y35184530D01*
X108825372Y35225238D01*
X108957956Y35211024D01*
X109339413Y35075407D01*
X109662679Y34832814D01*
X109907049Y34498953D01*
X109913945Y34485758D01*
X109994111Y34209457D01*
X109993427Y33884427D01*
X109915471Y33558523D01*
X109831226Y33379265D01*
X109626379Y33131570D01*
X109346468Y32926997D01*
X109035367Y32791675D01*
X108775598Y32750606D01*
X108419586Y32811428D01*
X108086060Y32980866D01*
X107803150Y33239375D01*
X107598984Y33567413D01*
X107598550Y33568409D01*
X107479912Y33841010D01*
X105693132Y33841010D01*
X104893809Y32478005D01*
X104668316Y32092891D01*
X104461198Y31738014D01*
X104282378Y31430470D01*
X104141779Y31187352D01*
X104049324Y31025754D01*
X104018560Y30970283D01*
X103982338Y30863293D01*
X104002540Y30747024D01*
X104088236Y30577369D01*
X104105459Y30547729D01*
X104243134Y30197101D01*
X104269068Y29830962D01*
X104189308Y29476824D01*
X104009900Y29162196D01*
X103748084Y28921901D01*
X103493415Y28804125D01*
X103186610Y28734852D01*
X102879787Y28720816D01*
X102625063Y28768751D01*
X102609917Y28774860D01*
X102258472Y28985036D01*
X102007890Y29270787D01*
X101864435Y29622840D01*
X101837975Y29863990D01*
X102412995Y29863990D01*
X102512886Y29637085D01*
X102626263Y29505051D01*
X102822643Y29347226D01*
X103009410Y29288550D01*
X103049596Y29286970D01*
X103239103Y29327936D01*
X103430423Y29464031D01*
X103472929Y29505051D01*
X103645101Y29735712D01*
X103690025Y29961617D01*
X103608039Y30191373D01*
X103505150Y30326798D01*
X103353954Y30467150D01*
X103197617Y30525865D01*
X103049596Y30534812D01*
X102849853Y30514919D01*
X102702142Y30434801D01*
X102594042Y30326798D01*
X102440159Y30091025D01*
X102412995Y29863990D01*
X101837975Y29863990D01*
X101830909Y29928384D01*
X101886957Y30325615D01*
G37*
G36*
X125771692Y28761867D02*
G01*
X125980151Y28741768D01*
X126012222Y27982723D01*
X126028740Y27651444D01*
X126048134Y27424682D01*
X126074780Y27278679D01*
X126113056Y27189678D01*
X126167338Y27133922D01*
X126168800Y27132849D01*
X126378362Y27048513D01*
X126595808Y27089682D01*
X126786853Y27229511D01*
X126870253Y27318138D01*
X126924333Y27403209D01*
X126955439Y27514034D01*
X126969919Y27679921D01*
X126974117Y27930180D01*
X126974343Y28095420D01*
X126974343Y28773838D01*
X127423333Y28773838D01*
X127423333Y26721313D01*
X127230909Y26721313D01*
X127078142Y26749998D01*
X127038485Y26817525D01*
X127030347Y26888427D01*
X126987594Y26904506D01*
X126882719Y26862860D01*
X126734530Y26785455D01*
X126412205Y26675622D01*
X126091515Y26684024D01*
X125964521Y26723162D01*
X125835640Y26815743D01*
X125707900Y26967064D01*
X125692160Y26991697D01*
X125636512Y27100116D01*
X125599350Y27226947D01*
X125577144Y27399644D01*
X125566361Y27645662D01*
X125563472Y27992170D01*
X125563232Y28781966D01*
X125771692Y28761867D01*
G37*
G36*
X132467372Y33127864D02*
G01*
X132537370Y33082817D01*
X132554299Y32966898D01*
X132554646Y32914992D01*
X132546711Y32768807D01*
X132497022Y32716289D01*
X132366753Y32725098D01*
X132333127Y32730478D01*
X132171011Y32738204D01*
X132041429Y32682309D01*
X131916208Y32571025D01*
X131827591Y32477297D01*
X131770864Y32389559D01*
X131738917Y32277186D01*
X131724642Y32109552D01*
X131720928Y31856032D01*
X131720808Y31729277D01*
X131720808Y31082929D01*
X131268561Y31082929D01*
X131286225Y32093157D01*
X131293553Y32473360D01*
X131302050Y32744313D01*
X131314628Y32925039D01*
X131334196Y33034558D01*
X131363665Y33091891D01*
X131405947Y33116061D01*
X131443867Y33123312D01*
X131591224Y33087202D01*
X131655668Y33009037D01*
X131727491Y32874835D01*
X131893153Y33005145D01*
X132112393Y33109413D01*
X132306731Y33135455D01*
X132467372Y33127864D01*
G37*
G36*
X123244320Y32600916D02*
G01*
X123420534Y32866908D01*
X123660039Y33050128D01*
X123942822Y33137729D01*
X124247512Y33138805D01*
X124522074Y33055557D01*
X124596428Y33010506D01*
X124788267Y32873905D01*
X124806936Y33405564D01*
X124825606Y33937222D01*
X125210454Y33937222D01*
X125227717Y32510076D01*
X125244979Y31082929D01*
X125019257Y31082929D01*
X124852032Y31103925D01*
X124793861Y31170503D01*
X124793535Y31178199D01*
X124774148Y31229032D01*
X124698421Y31210491D01*
X124585076Y31146368D01*
X124305379Y31042226D01*
X123988130Y31025529D01*
X123688693Y31096364D01*
X123593471Y31144794D01*
X123356312Y31358414D01*
X123203807Y31639164D01*
X123134966Y31958716D01*
X123140496Y32090651D01*
X123564514Y32090651D01*
X123603404Y31844215D01*
X123720464Y31628807D01*
X123905420Y31472804D01*
X124147998Y31404580D01*
X124182173Y31403636D01*
X124427695Y31455199D01*
X124569347Y31558466D01*
X124728399Y31789934D01*
X124789110Y32043974D01*
X124760475Y32293697D01*
X124651486Y32512214D01*
X124471136Y32672637D01*
X124228421Y32748077D01*
X124170608Y32750606D01*
X123955725Y32706511D01*
X123762339Y32563116D01*
X123614067Y32339743D01*
X123564514Y32090651D01*
X123140496Y32090651D01*
X123148800Y32288742D01*
X123244320Y32600916D01*
G37*
G36*
X117272954Y29607577D02*
G01*
X117618694Y29599880D01*
X117866873Y29574264D01*
X118047452Y29526751D01*
X118118269Y29495330D01*
X118385003Y29297597D01*
X118555582Y29039011D01*
X118620620Y28744697D01*
X118570733Y28439781D01*
X118539939Y28366383D01*
X118372004Y28126384D01*
X118124013Y27960283D01*
X117781801Y27860433D01*
X117548362Y27830988D01*
X117096566Y27793111D01*
X117096566Y26721313D01*
X116647576Y26721313D01*
X116647576Y28260707D01*
X117096566Y28260707D01*
X117484330Y28260707D01*
X117719607Y28269545D01*
X117872580Y28304775D01*
X117988533Y28379475D01*
X118029532Y28418145D01*
X118160146Y28602445D01*
X118168035Y28785524D01*
X118054147Y28989536D01*
X118054031Y28989683D01*
X117966619Y29083074D01*
X117864419Y29134056D01*
X117707280Y29155077D01*
X117508829Y29158687D01*
X117096566Y29158687D01*
X117096566Y28260707D01*
X116647576Y28260707D01*
X116647576Y29607677D01*
X117272954Y29607577D01*
G37*
G36*
X103285636Y22333232D02*
G01*
X103413196Y22535101D01*
X103686875Y22809471D01*
X103983124Y22969688D01*
X104329758Y23029777D01*
X104396944Y23031044D01*
X104797501Y22975828D01*
X105131820Y22810801D01*
X105398410Y22536898D01*
X105522645Y22326002D01*
X105696121Y21971428D01*
X106600474Y21989174D01*
X107504826Y22006919D01*
X108355189Y23450101D01*
X108584013Y23841767D01*
X108789600Y24200032D01*
X108963276Y24509258D01*
X109096366Y24753810D01*
X109180198Y24918050D01*
X109206362Y24984444D01*
X109167797Y25106105D01*
X109120042Y25176869D01*
X108968431Y25443963D01*
X108902180Y25769593D01*
X108913675Y25941895D01*
X109496772Y25941895D01*
X109501391Y25814648D01*
X109569050Y25650721D01*
X109573061Y25642513D01*
X109746966Y25400859D01*
X109968457Y25275102D01*
X110225456Y25269478D01*
X110427142Y25342937D01*
X110632243Y25501576D01*
X110731890Y25721229D01*
X110746566Y25885515D01*
X110688734Y26152985D01*
X110524769Y26357466D01*
X110300910Y26471327D01*
X110027097Y26493926D01*
X109786237Y26400055D01*
X109601585Y26201157D01*
X109551973Y26102772D01*
X109496772Y25941895D01*
X108913675Y25941895D01*
X108925107Y26113262D01*
X109007695Y26368535D01*
X109213656Y26683883D01*
X109483830Y26908710D01*
X109796573Y27044387D01*
X110130244Y27092281D01*
X110463201Y27053763D01*
X110773800Y26930200D01*
X111040401Y26722961D01*
X111241360Y26433415D01*
X111321016Y26222225D01*
X111373054Y26002589D01*
X111380454Y25831021D01*
X111343216Y25635323D01*
X111321016Y25552724D01*
X111163290Y25206892D01*
X110908523Y24940705D01*
X110564650Y24760080D01*
X110139610Y24670934D01*
X110137865Y24670778D01*
X109753659Y24636717D01*
X108846188Y23097323D01*
X108606570Y22692417D01*
X108385365Y22321608D01*
X108191688Y21999940D01*
X108034653Y21742457D01*
X107923377Y21564201D01*
X107866973Y21480217D01*
X107864860Y21477753D01*
X107793187Y21445748D01*
X107637849Y21422540D01*
X107387027Y21407333D01*
X107028906Y21399330D01*
X106675379Y21397576D01*
X106271461Y21396729D01*
X105977512Y21392883D01*
X105775221Y21384086D01*
X105646280Y21368380D01*
X105572377Y21343812D01*
X105535203Y21308426D01*
X105520624Y21274282D01*
X105426785Y21121801D01*
X105254456Y20948451D01*
X105042203Y20785851D01*
X104828589Y20665619D01*
X104737848Y20632505D01*
X104467557Y20577233D01*
X104235458Y20585410D01*
X104055652Y20628960D01*
X103729989Y20786136D01*
X103472155Y21027001D01*
X103290475Y21326848D01*
X103193278Y21660973D01*
X103191649Y21788533D01*
X103771441Y21788533D01*
X103825098Y21560865D01*
X103959419Y21377058D01*
X104150986Y21251969D01*
X104376379Y21200452D01*
X104612182Y21237366D01*
X104834976Y21377567D01*
X104850489Y21392642D01*
X105006761Y21624381D01*
X105038495Y21872834D01*
X104945536Y22123325D01*
X104859413Y22236816D01*
X104644584Y22393538D01*
X104400321Y22443370D01*
X104158373Y22392176D01*
X103950490Y22245820D01*
X103821867Y22045204D01*
X103771441Y21788533D01*
X103191649Y21788533D01*
X103188889Y22004669D01*
X103285636Y22333232D01*
G37*
G36*
X130747630Y29339848D02*
G01*
X130805273Y29282348D01*
X130830050Y29143045D01*
X130835176Y29078510D01*
X130854602Y28906878D01*
X130902582Y28824831D01*
X131013429Y28793802D01*
X131095429Y28786002D01*
X131253874Y28762302D01*
X131321547Y28705741D01*
X131335957Y28584418D01*
X131335959Y28581414D01*
X131322171Y28458618D01*
X131255801Y28401165D01*
X131099342Y28377152D01*
X131095429Y28376827D01*
X130854899Y28356919D01*
X130835915Y27960338D01*
X130834549Y27707322D01*
X130851012Y27472527D01*
X130871696Y27350995D01*
X130925022Y27207275D01*
X131016351Y27141504D01*
X131167145Y27118095D01*
X131323952Y27095551D01*
X131386522Y27044161D01*
X131388898Y26934256D01*
X131387930Y26925670D01*
X131362194Y26818551D01*
X131293075Y26763905D01*
X131143917Y26739365D01*
X131074255Y26734279D01*
X130834468Y26742605D01*
X130661903Y26813355D01*
X130625265Y26840626D01*
X130555830Y26906522D01*
X130508809Y26988472D01*
X130478067Y27113366D01*
X130457469Y27308092D01*
X130440882Y27599538D01*
X130437980Y27661499D01*
X130405909Y28356919D01*
X130229520Y28377215D01*
X130100471Y28414971D01*
X130055895Y28515460D01*
X130053131Y28581414D01*
X130075103Y28718489D01*
X130166566Y28775488D01*
X130229520Y28785613D01*
X130342463Y28813045D01*
X130398413Y28886306D01*
X130422955Y29043610D01*
X130425632Y29078510D01*
X130445686Y29249999D01*
X130490419Y29328787D01*
X130586548Y29350440D01*
X130630404Y29351111D01*
X130747630Y29339848D01*
G37*
G36*
X119489530Y32096131D02*
G01*
X119538323Y32145298D01*
X119647170Y32240377D01*
X119752673Y32296638D01*
X119892623Y32324173D01*
X120104814Y32333072D01*
X120243893Y32333687D01*
X120501503Y32337411D01*
X120655670Y32352066D01*
X120731104Y32382878D01*
X120752518Y32435075D01*
X120752640Y32441279D01*
X120705532Y32551405D01*
X120590686Y32676166D01*
X120576237Y32687917D01*
X120405863Y32784758D01*
X120210868Y32800341D01*
X120150493Y32793704D01*
X119962687Y32747911D01*
X119820753Y32677882D01*
X119804554Y32663861D01*
X119720898Y32602904D01*
X119631080Y32621423D01*
X119554182Y32668042D01*
X119400394Y32768808D01*
X119543166Y32920781D01*
X119774297Y33080909D01*
X120071182Y33165995D01*
X120393826Y33173620D01*
X120702234Y33101363D01*
X120887940Y33002165D01*
X121015279Y32878295D01*
X121105384Y32703748D01*
X121163141Y32458844D01*
X121193436Y32123909D01*
X121201258Y31740379D01*
X121201616Y31082929D01*
X120977121Y31082929D01*
X120810380Y31104162D01*
X120752881Y31171371D01*
X120752626Y31178199D01*
X120733239Y31229032D01*
X120657512Y31210491D01*
X120544167Y31146368D01*
X120289132Y31049326D01*
X119999372Y31025718D01*
X119733982Y31078114D01*
X119669282Y31108298D01*
X119472470Y31287568D01*
X119362886Y31548609D01*
X119343788Y31728379D01*
X119346825Y31747799D01*
X119806086Y31747799D01*
X119832599Y31570933D01*
X119963402Y31433201D01*
X119982929Y31422681D01*
X120181899Y31373339D01*
X120399707Y31428078D01*
X120539302Y31504818D01*
X120681130Y31641228D01*
X120732808Y31794812D01*
X120685434Y31929622D01*
X120652015Y31959986D01*
X120476013Y32029784D01*
X120253453Y32044736D01*
X120039848Y32007609D01*
X119891504Y31922057D01*
X119806086Y31747799D01*
X119346825Y31747799D01*
X119374547Y31925037D01*
X119489530Y32096131D01*
G37*
G36*
X117716434Y25274450D02*
G01*
X117872970Y25253152D01*
X117988807Y25198861D01*
X118107729Y25096199D01*
X118169865Y25034211D01*
X118306561Y24891328D01*
X118362354Y24806869D01*
X118348101Y24749612D01*
X118286958Y24697469D01*
X118118965Y24615845D01*
X117978464Y24624325D01*
X117906839Y24701821D01*
X117797381Y24827838D01*
X117617223Y24890613D01*
X117407100Y24890460D01*
X117207746Y24827691D01*
X117059895Y24702618D01*
X117054945Y24695285D01*
X116997100Y24530304D01*
X117054293Y24379981D01*
X117230729Y24239473D01*
X117530615Y24103936D01*
X117585867Y24083960D01*
X117983876Y23903472D01*
X118269857Y23685190D01*
X118440043Y23434916D01*
X118490663Y23158452D01*
X118417949Y22861600D01*
X118402044Y22827511D01*
X118236864Y22613385D01*
X117990226Y22435582D01*
X117708679Y22321971D01*
X117513485Y22295556D01*
X117336395Y22324925D01*
X117119435Y22399033D01*
X117030497Y22439874D01*
X116846798Y22559633D01*
X116678878Y22714190D01*
X116551123Y22874509D01*
X116487923Y23011550D01*
X116494869Y23077625D01*
X116580364Y23146965D01*
X116670174Y23189829D01*
X116770979Y23202666D01*
X116874405Y23146240D01*
X117013566Y23001983D01*
X117021387Y22992910D01*
X117167368Y22840457D01*
X117295866Y22766991D01*
X117461136Y22745147D01*
X117513827Y22744545D01*
X117716412Y22762490D01*
X117850243Y22831748D01*
X117925749Y22913549D01*
X118017868Y23056057D01*
X118058582Y23169295D01*
X118058687Y23173030D01*
X117999378Y23314397D01*
X117835258Y23466355D01*
X117587037Y23613021D01*
X117359178Y23709611D01*
X117006562Y23863642D01*
X116768782Y24032622D01*
X116632399Y24230296D01*
X116583973Y24470411D01*
X116583434Y24503040D01*
X116600194Y24710337D01*
X116667922Y24871106D01*
X116803001Y25038543D01*
X116924439Y25163936D01*
X117028603Y25235576D01*
X117157670Y25268491D01*
X117353818Y25277710D01*
X117475416Y25278131D01*
X117716434Y25274450D01*
G37*
G36*
X129024695Y32059789D02*
G01*
X129234925Y32244754D01*
X129512635Y32340680D01*
X129873953Y32352726D01*
X129927080Y32348475D01*
X130139072Y32332212D01*
X130253500Y32338587D01*
X130300368Y32376693D01*
X130309676Y32455621D01*
X130309697Y32464415D01*
X130254915Y32634233D01*
X130110466Y32749724D01*
X129906197Y32803179D01*
X129671954Y32786887D01*
X129437584Y32693137D01*
X129433614Y32690732D01*
X129296936Y32613327D01*
X129217328Y32604425D01*
X129142758Y32665052D01*
X129113508Y32697043D01*
X129041651Y32788559D01*
X129047351Y32857356D01*
X129140275Y32950868D01*
X129170586Y32977061D01*
X129424253Y33118254D01*
X129733530Y33178178D01*
X130057390Y33158897D01*
X130354802Y33062471D01*
X130570440Y32906710D01*
X130635036Y32829938D01*
X130679815Y32744488D01*
X130709250Y32625269D01*
X130727811Y32447189D01*
X130739971Y32185160D01*
X130747749Y31911798D01*
X130768881Y31082929D01*
X130539289Y31082929D01*
X130370544Y31103202D01*
X130310295Y31167846D01*
X130309697Y31178199D01*
X130290309Y31229032D01*
X130214583Y31210491D01*
X130101237Y31146368D01*
X129863731Y31052171D01*
X129613763Y31019028D01*
X129414021Y31037030D01*
X129259986Y31109944D01*
X129116667Y31236869D01*
X128946430Y31477874D01*
X128896292Y31729989D01*
X128896713Y31731428D01*
X129359457Y31731428D01*
X129359949Y31671522D01*
X129433515Y31498041D01*
X129584915Y31397210D01*
X129783137Y31373791D01*
X129997168Y31432546D01*
X130165379Y31547855D01*
X130298153Y31719516D01*
X130310277Y31863839D01*
X130208115Y31971493D01*
X129998027Y32033152D01*
X129826873Y32044175D01*
X129596861Y32003221D01*
X129432325Y31892005D01*
X129359457Y31731428D01*
X128896713Y31731428D01*
X128968201Y31975769D01*
X129024695Y32059789D01*
G37*
G36*
X122910277Y33127979D02*
G01*
X122980261Y33082728D01*
X122997211Y32965471D01*
X122997576Y32909738D01*
X122989162Y32761277D01*
X122945747Y32709629D01*
X122840069Y32723557D01*
X122835977Y32724579D01*
X122637735Y32726071D01*
X122428133Y32658369D01*
X122264913Y32543710D01*
X122225427Y32489460D01*
X122199129Y32378338D01*
X122178414Y32172849D01*
X122166028Y31906875D01*
X122163737Y31728560D01*
X122163737Y31082929D01*
X121711490Y31082929D01*
X121729154Y32093157D01*
X121736331Y32473120D01*
X121744494Y32743868D01*
X121756722Y32924454D01*
X121776093Y33033929D01*
X121805687Y33091344D01*
X121848583Y33115751D01*
X121895814Y33124493D01*
X122025902Y33105047D01*
X122079684Y33012246D01*
X122115408Y32909821D01*
X122169080Y32891650D01*
X122274024Y32957080D01*
X122338659Y33007172D01*
X122551552Y33108383D01*
X122749660Y33135455D01*
X122910277Y33127979D01*
G37*
G36*
X123528668Y25256367D02*
G01*
X123627256Y25111434D01*
X123638990Y25021566D01*
X123585154Y24843251D01*
X123440221Y24744663D01*
X123350353Y24732929D01*
X123203160Y24767665D01*
X123138687Y24809899D01*
X123059975Y24963194D01*
X123080430Y25126071D01*
X123182030Y25255934D01*
X123346752Y25310181D01*
X123350353Y25310202D01*
X123528668Y25256367D01*
G37*
G36*
X102011636Y26526727D02*
G01*
X102016207Y26532968D01*
X102107504Y26677088D01*
X102151018Y26786362D01*
X102151616Y26794547D01*
X102120603Y26868570D01*
X102033052Y27038368D01*
X101897198Y27288985D01*
X101721276Y27605466D01*
X101513518Y27972854D01*
X101282159Y28376195D01*
X101253636Y28425549D01*
X101019688Y28833742D01*
X100808449Y29209421D01*
X100628193Y29537299D01*
X100487191Y29802088D01*
X100393716Y29988503D01*
X100356039Y30081254D01*
X100355656Y30085048D01*
X100386685Y30174735D01*
X100472396Y30353269D01*
X100601731Y30599341D01*
X100763629Y30891641D01*
X100876111Y31087777D01*
X101396566Y31983582D01*
X101260960Y32298808D01*
X101150261Y32638816D01*
X101142418Y32833953D01*
X101766768Y32833953D01*
X101818449Y32547464D01*
X101958872Y32335566D01*
X102166105Y32212008D01*
X102418217Y32190538D01*
X102666031Y32270209D01*
X102864739Y32433063D01*
X102968972Y32645741D01*
X102985733Y32879593D01*
X102922028Y33105967D01*
X102784859Y33296214D01*
X102581231Y33421681D01*
X102376111Y33456162D01*
X102121403Y33397783D01*
X101918147Y33240956D01*
X101793237Y33013141D01*
X101766768Y32833953D01*
X101142418Y32833953D01*
X101138142Y32940333D01*
X101223009Y33245002D01*
X101224627Y33248887D01*
X101428936Y33587215D01*
X101709426Y33835641D01*
X102044234Y33985459D01*
X102411497Y34027961D01*
X102789352Y33954442D01*
X102891896Y33912870D01*
X103208683Y33711050D01*
X103427590Y33452163D01*
X103554012Y33155239D01*
X103593347Y32839308D01*
X103550988Y32523398D01*
X103432333Y32226540D01*
X103242776Y31967763D01*
X102987713Y31766097D01*
X102672541Y31640571D01*
X102302654Y31610215D01*
X102240431Y31615287D01*
X101902150Y31650201D01*
X101445751Y30872185D01*
X101246391Y30522342D01*
X101115195Y30267115D01*
X101047226Y30095700D01*
X101037550Y29997296D01*
X101041318Y29987111D01*
X101086859Y29903688D01*
X101187413Y29725763D01*
X101333574Y29469773D01*
X101515938Y29152149D01*
X101725098Y28789327D01*
X101895050Y28495438D01*
X102696818Y27110826D01*
X103017525Y27107085D01*
X103422466Y27046943D01*
X103767819Y26884500D01*
X104037958Y26631701D01*
X104217259Y26300493D01*
X104257828Y26158790D01*
X104285212Y25779899D01*
X104203461Y25434692D01*
X104030248Y25137477D01*
X103783248Y24902557D01*
X103480135Y24744239D01*
X103138585Y24676828D01*
X102776272Y24714629D01*
X102565882Y24789352D01*
X102268824Y24984623D01*
X102042413Y25253222D01*
X101895069Y25568440D01*
X101835212Y25903568D01*
X101841108Y25957268D01*
X102438538Y25957268D01*
X102469073Y25710822D01*
X102501132Y25637217D01*
X102636550Y25462237D01*
X102823106Y25321047D01*
X103009713Y25250790D01*
X103035621Y25248629D01*
X103146525Y25270294D01*
X103310440Y25326756D01*
X103335129Y25336843D01*
X103549772Y25483200D01*
X103670557Y25683671D01*
X103702104Y25910160D01*
X103649036Y26134574D01*
X103515973Y26328815D01*
X103307536Y26464791D01*
X103142574Y26507499D01*
X102881361Y26487811D01*
X102664043Y26372031D01*
X102509982Y26186427D01*
X102438538Y25957268D01*
X101841108Y25957268D01*
X101871261Y26231900D01*
X102011636Y26526727D01*
G37*
G36*
X104448860Y28182833D02*
G01*
X104574350Y28425026D01*
X104726864Y28705676D01*
X104893031Y29001163D01*
X105059483Y29287867D01*
X105212849Y29542169D01*
X105339761Y29740448D01*
X105426850Y29859085D01*
X105448053Y29879296D01*
X105547621Y29902490D01*
X105747526Y29918577D01*
X106020999Y29927919D01*
X106341268Y29930878D01*
X106681564Y29927816D01*
X107015116Y29919097D01*
X107315153Y29905082D01*
X107554906Y29886134D01*
X107707604Y29862616D01*
X107744358Y29848207D01*
X107809394Y29767419D01*
X107924338Y29595501D01*
X108076149Y29353103D01*
X108251788Y29060871D01*
X108375903Y28848172D01*
X108906349Y27928313D01*
X108772221Y27661556D01*
X108687861Y27503967D01*
X108554978Y27267488D01*
X108391242Y26983116D01*
X108214323Y26681847D01*
X108199670Y26657172D01*
X107761247Y25919545D01*
X106640144Y25903672D01*
X106270363Y25901163D01*
X105943199Y25904092D01*
X105681055Y25911846D01*
X105506336Y25923814D01*
X105443966Y25936374D01*
X105376927Y26015026D01*
X105264717Y26183409D01*
X105120706Y26417805D01*
X104958263Y26694497D01*
X104790757Y26989767D01*
X104631559Y27279897D01*
X104494037Y27541168D01*
X104391560Y27749864D01*
X104337499Y27882266D01*
X104332424Y27908295D01*
X104333541Y27911660D01*
X104975831Y27911660D01*
X105007079Y27829630D01*
X105095170Y27659501D01*
X105228539Y27421696D01*
X105395621Y27136635D01*
X105584851Y26824742D01*
X105659008Y26705278D01*
X105809286Y26464748D01*
X106568237Y26464748D01*
X106901942Y26467400D01*
X107131117Y26477431D01*
X107279446Y26497948D01*
X107370609Y26532061D01*
X107423389Y26576995D01*
X107507344Y26691929D01*
X107627211Y26876871D01*
X107766702Y27104052D01*
X107909530Y27345706D01*
X108039410Y27574065D01*
X108140054Y27761360D01*
X108195174Y27879825D01*
X108200830Y27902465D01*
X108168162Y27988445D01*
X108082618Y28154714D01*
X107960589Y28373585D01*
X107818466Y28617371D01*
X107672640Y28858384D01*
X107539501Y29068939D01*
X107435440Y29221347D01*
X107383187Y29283612D01*
X107271194Y29317470D01*
X107039636Y29336422D01*
X106696422Y29339967D01*
X106538413Y29337171D01*
X105780021Y29319040D01*
X105378923Y28645556D01*
X105224147Y28381236D01*
X105096769Y28155268D01*
X105009710Y27991178D01*
X104975889Y27912488D01*
X104975831Y27911660D01*
X104333541Y27911660D01*
X104363761Y28002716D01*
X104448860Y28182833D01*
G37*
G36*
X109801410Y23646001D02*
G01*
X110043594Y23917792D01*
X110127079Y23988503D01*
X110269260Y24093406D01*
X110400871Y24154224D01*
X110566210Y24183601D01*
X110809576Y24194177D01*
X110850101Y24194843D01*
X111326699Y24201958D01*
X111778332Y24962160D01*
X111963863Y25280362D01*
X112087606Y25509652D01*
X112157717Y25668656D01*
X112182352Y25775998D01*
X112169668Y25850305D01*
X112168419Y25853024D01*
X112119803Y25943173D01*
X112015865Y26127116D01*
X111866275Y26388045D01*
X111680701Y26709152D01*
X111468811Y27073627D01*
X111303899Y27356003D01*
X110500925Y28728319D01*
X110111482Y28738317D01*
X109852665Y28758483D01*
X109658686Y28815523D01*
X109467375Y28928276D01*
X109454282Y28937465D01*
X109173897Y29205862D01*
X108998564Y29525706D01*
X108928715Y29874203D01*
X108936701Y29952661D01*
X109527879Y29952661D01*
X109566430Y29680270D01*
X109692319Y29485549D01*
X109834163Y29383784D01*
X110050344Y29319457D01*
X110294308Y29327226D01*
X110503190Y29403123D01*
X110537730Y29428184D01*
X110671205Y29604374D01*
X110755450Y29838993D01*
X110766741Y30064748D01*
X110765192Y30073422D01*
X110694069Y30230832D01*
X110562310Y30391196D01*
X110533628Y30416863D01*
X110303159Y30539042D01*
X110059591Y30554258D01*
X109832292Y30476065D01*
X109650626Y30318017D01*
X109543961Y30093667D01*
X109527879Y29952661D01*
X108936701Y29952661D01*
X108964785Y30228557D01*
X109107209Y30565974D01*
X109356422Y30863660D01*
X109416616Y30914434D01*
X109714689Y31076128D01*
X110057799Y31142384D01*
X110412617Y31117364D01*
X110745815Y31005234D01*
X111024063Y30810157D01*
X111118514Y30701811D01*
X111300356Y30357597D01*
X111370447Y29985919D01*
X111327813Y29614939D01*
X111171484Y29272820D01*
X111167986Y29267635D01*
X111015527Y29042973D01*
X111938316Y27449189D01*
X112175743Y27035479D01*
X112390614Y26654080D01*
X112574751Y26320074D01*
X112719972Y26048545D01*
X112818099Y25854576D01*
X112860951Y25753248D01*
X112862168Y25745714D01*
X112831171Y25655097D01*
X112744892Y25476213D01*
X112614544Y25230495D01*
X112451339Y24939380D01*
X112342123Y24751522D01*
X112147177Y24418538D01*
X112010293Y24175975D01*
X111923452Y24004303D01*
X111878635Y23883991D01*
X111867820Y23795508D01*
X111882988Y23719322D01*
X111899906Y23674596D01*
X112028693Y23291934D01*
X112070735Y22970965D01*
X112034672Y22699356D01*
X111879927Y22350572D01*
X111637902Y22077639D01*
X111331522Y21890742D01*
X110983710Y21800069D01*
X110617391Y21815805D01*
X110295989Y21926742D01*
X110052800Y22094434D01*
X109840430Y22317308D01*
X109818442Y22347666D01*
X109698091Y22548570D01*
X109640801Y22739927D01*
X109626229Y22989599D01*
X109629773Y23020317D01*
X110233434Y23020317D01*
X110284462Y22745412D01*
X110420408Y22535670D01*
X110615568Y22402885D01*
X110844240Y22358850D01*
X111080719Y22415359D01*
X111264631Y22547187D01*
X111411478Y22769669D01*
X111455509Y23014235D01*
X111407723Y23252330D01*
X111279116Y23455400D01*
X111080685Y23594889D01*
X110842778Y23642525D01*
X110588070Y23584147D01*
X110384814Y23427320D01*
X110259904Y23199505D01*
X110233434Y23020317D01*
X109629773Y23020317D01*
X109667446Y23346889D01*
X109801410Y23646001D01*
G37*
G36*
X120215860Y28792086D02*
G01*
X120275853Y28701855D01*
X120291391Y28601119D01*
X120296730Y28476948D01*
X120259960Y28414153D01*
X120149317Y28387464D01*
X120009209Y28376624D01*
X119789583Y28341943D01*
X119631661Y28259154D01*
X119525053Y28110428D01*
X119459368Y27877937D01*
X119424217Y27543854D01*
X119415681Y27358211D01*
X119393635Y26721313D01*
X119020808Y26721313D01*
X119020808Y28773838D01*
X119213232Y28773838D01*
X119354428Y28753405D01*
X119403880Y28678103D01*
X119405656Y28647489D01*
X119413578Y28575390D01*
X119456094Y28567334D01*
X119561331Y28627475D01*
X119643611Y28682619D01*
X119899177Y28806572D01*
X120076566Y28825005D01*
X120215860Y28792086D01*
G37*
G36*
X123021192Y28179273D02*
G01*
X123185072Y28481252D01*
X123434936Y28693373D01*
X123764215Y28808081D01*
X123840122Y28818790D01*
X124058053Y28821955D01*
X124238958Y28760618D01*
X124360581Y28685387D01*
X124601111Y28521139D01*
X124601111Y29615805D01*
X124809571Y29595705D01*
X125018030Y29575606D01*
X125018030Y26753384D01*
X124809571Y26733285D01*
X124658491Y26736165D01*
X124603022Y26791315D01*
X124601111Y26813461D01*
X124584877Y26896795D01*
X124522177Y26896051D01*
X124392010Y26808771D01*
X124362048Y26785455D01*
X124139193Y26683679D01*
X123860803Y26661917D01*
X123571977Y26720631D01*
X123445565Y26776096D01*
X123181068Y26984405D01*
X123014637Y27273487D01*
X122948414Y27638937D01*
X122949229Y27726606D01*
X123383850Y27726606D01*
X123398192Y27510905D01*
X123459174Y27359275D01*
X123569914Y27229511D01*
X123789845Y27077675D01*
X124027958Y27050597D01*
X124271102Y27133422D01*
X124464086Y27298968D01*
X124574820Y27531408D01*
X124597552Y27794659D01*
X124526531Y28052636D01*
X124439024Y28186929D01*
X124222840Y28366756D01*
X123992689Y28433496D01*
X123771191Y28397018D01*
X123580967Y28267191D01*
X123444636Y28053881D01*
X123384820Y27766957D01*
X123383850Y27726606D01*
X122949229Y27726606D01*
X122949865Y27794991D01*
X123021192Y28179273D01*
G37*
G36*
X123574848Y22359697D02*
G01*
X123125858Y22359697D01*
X123125858Y24412222D01*
X123574848Y24412222D01*
X123574848Y22359697D01*
G37*
G36*
X132914248Y32772692D02*
G01*
X133158790Y32998306D01*
X133257757Y33055278D01*
X133566201Y33172494D01*
X133847260Y33184474D01*
X134146068Y33091801D01*
X134198217Y33067458D01*
X134426547Y32899968D01*
X134605656Y32662188D01*
X134710408Y32395981D01*
X134723922Y32191886D01*
X134703384Y32012980D01*
X133917651Y31994970D01*
X133553506Y31982413D01*
X133307074Y31959553D01*
X133167829Y31919284D01*
X133125240Y31854499D01*
X133168779Y31758089D01*
X133287917Y31622948D01*
X133319409Y31591127D01*
X133550928Y31438455D01*
X133811786Y31409022D01*
X134093716Y31503418D01*
X134143697Y31532159D01*
X134335467Y31631969D01*
X134474764Y31652213D01*
X134604540Y31599057D01*
X134605491Y31598457D01*
X134655021Y31543550D01*
X134624346Y31465262D01*
X134541349Y31368850D01*
X134379352Y31223177D01*
X134210972Y31109689D01*
X134209473Y31108906D01*
X133974856Y31039660D01*
X133686078Y31026669D01*
X133404256Y31069904D01*
X133292273Y31109333D01*
X133011844Y31296496D01*
X132817785Y31553532D01*
X132710546Y31855056D01*
X132690576Y32175682D01*
X132736871Y32390474D01*
X133161415Y32390474D01*
X133165101Y32363960D01*
X133246014Y32332051D01*
X133414512Y32315376D01*
X133633356Y32312575D01*
X133865304Y32322291D01*
X134073118Y32343166D01*
X134219557Y32373842D01*
X134267375Y32404154D01*
X134247812Y32527851D01*
X134134080Y32652071D01*
X133957571Y32751031D01*
X133791809Y32794748D01*
X133607553Y32806387D01*
X133477415Y32763952D01*
X133337274Y32645045D01*
X133323215Y32631063D01*
X133210868Y32496338D01*
X133161415Y32390474D01*
X132736871Y32390474D01*
X132758327Y32490023D01*
X132914248Y32772692D01*
G37*
D11*
%TO.C,DS5*%
X98885000Y33555000D02*
X98885000Y52805000D01*
X98885000Y33555000D02*
X48435000Y33555000D01*
X98885000Y52805000D02*
X48435000Y52805000D01*
X48435000Y33555000D02*
X48435000Y52805000D01*
D13*
X66165000Y32955000D02*
G75*
G03*
X66165000Y32955000I-125000J0D01*
G01*
D12*
%TO.C,SW1*%
X114860000Y57180000D02*
X114860000Y54580000D01*
X108660000Y57180000D02*
X108660000Y54580000D01*
X114660000Y59130000D02*
X108860000Y59130000D01*
X114760000Y52630000D02*
X108760000Y52630000D01*
X106660000Y59180000D02*
X107660000Y59180000D01*
X106660000Y58180000D02*
X106660000Y59180000D01*
%TO.C,J5*%
X87630000Y82550000D02*
X87630000Y85150000D01*
X87630000Y85150000D02*
X90230000Y85150000D01*
X85030000Y82550000D02*
X87630000Y82550000D01*
X85030000Y82550000D02*
X85030000Y77410000D01*
X85030000Y85150000D02*
X86360000Y85150000D01*
X85030000Y77410000D02*
X90230000Y77410000D01*
X90230000Y85150000D02*
X90230000Y77410000D01*
X85030000Y83820000D02*
X85030000Y85150000D01*
%TO.C,U6*%
X91505000Y21310000D02*
X91505000Y22960000D01*
X60905000Y17660000D02*
X91505000Y17660000D01*
X91505000Y17660000D02*
X91505000Y19310000D01*
X60905000Y22960000D02*
X60905000Y17660000D01*
X91505000Y22960000D02*
X60905000Y22960000D01*
X91505000Y21310000D02*
G75*
G03*
X91505000Y19310000I0J-1000000D01*
G01*
%TO.C,TP1*%
X83510000Y12700000D02*
G75*
G03*
X83510000Y12700000I-1200000J0D01*
G01*
%TO.C,SW2*%
X104600000Y78030000D02*
X98600000Y78030000D01*
X96500000Y84580000D02*
X97500000Y84580000D01*
X104500000Y84530000D02*
X98700000Y84530000D01*
X104700000Y82580000D02*
X104700000Y79980000D01*
X96500000Y83580000D02*
X96500000Y84580000D01*
X98500000Y82580000D02*
X98500000Y79980000D01*
%TO.C,SW3*%
X48240000Y83580000D02*
X48240000Y84580000D01*
X48240000Y84580000D02*
X49240000Y84580000D01*
X56240000Y84530000D02*
X50440000Y84530000D01*
X50240000Y82580000D02*
X50240000Y79980000D01*
X56440000Y82580000D02*
X56440000Y79980000D01*
X56340000Y78030000D02*
X50340000Y78030000D01*
%TO.C,TP4*%
X128200000Y48260000D02*
G75*
G03*
X128200000Y48260000I-1200000J0D01*
G01*
%TO.C,TP2*%
X87560000Y12700000D02*
G75*
G03*
X87560000Y12700000I-1200000J0D01*
G01*
%TO.C,U4*%
X41970000Y40760000D02*
X11370000Y40760000D01*
X11370000Y40760000D02*
X11370000Y39110000D01*
X11370000Y35460000D02*
X41970000Y35460000D01*
X11370000Y37110000D02*
X11370000Y35460000D01*
X41970000Y35460000D02*
X41970000Y40760000D01*
X11370000Y37110000D02*
G75*
G03*
X11370000Y39110000I0J1000000D01*
G01*
%TD*%
%LPC*%
D14*
%TO.C,C6*%
X112610000Y63500000D03*
X110910000Y63500000D03*
%TD*%
D15*
%TO.C,U10*%
X127065000Y42545000D03*
X127065000Y41275000D03*
X127065000Y40005000D03*
X127065000Y38735000D03*
X132015000Y38735000D03*
X132015000Y40005000D03*
X132015000Y41275000D03*
X132015000Y42545000D03*
%TD*%
D16*
%TO.C,H4*%
X136260000Y4780000D03*
%TD*%
D14*
%TO.C,R20*%
X79590000Y76200000D03*
X77890000Y76200000D03*
%TD*%
%TO.C,C16*%
X77890000Y5080000D03*
X79590000Y5080000D03*
%TD*%
%TO.C,C15*%
X24550000Y45720000D03*
X26250000Y45720000D03*
%TD*%
D17*
%TO.C,TP3*%
X132080000Y48260000D03*
%TD*%
D18*
%TO.C,J1*%
X132080000Y67310000D03*
D19*
X132080000Y64770000D03*
X132080000Y62230000D03*
X132080000Y59690000D03*
X132080000Y57150000D03*
X132080000Y54610000D03*
%TD*%
D20*
%TO.C,R7*%
X104140000Y61810000D03*
X104140000Y60110000D03*
%TD*%
D14*
%TO.C,C2*%
X70270000Y55880000D03*
X71970000Y55880000D03*
%TD*%
D20*
%TO.C,R2*%
X53340000Y70270000D03*
X53340000Y71970000D03*
%TD*%
D14*
%TO.C,C9*%
X77890000Y58420000D03*
X79590000Y58420000D03*
%TD*%
D21*
%TO.C,D1*%
X72722500Y76200000D03*
X74597500Y76200000D03*
%TD*%
D22*
%TO.C,Y2*%
X111760000Y44470000D03*
X111760000Y46970000D03*
%TD*%
D14*
%TO.C,C7*%
X71970000Y78740000D03*
X70270000Y78740000D03*
%TD*%
D23*
%TO.C,Y1*%
X69830000Y73660000D03*
X67330000Y73660000D03*
%TD*%
D24*
%TO.C,U3*%
X115580000Y46980000D03*
D25*
X115580000Y44440000D03*
X115580000Y41900000D03*
X115580000Y39360000D03*
X123200000Y39360000D03*
X123200000Y41900000D03*
X123200000Y44440000D03*
X123200000Y46980000D03*
%TD*%
D26*
%TO.C,D2*%
X15940000Y72390000D03*
X15940000Y69850000D03*
X15940000Y67310000D03*
X15940000Y64770000D03*
X15940000Y62230000D03*
X15940000Y59690000D03*
X15940000Y57150000D03*
X15940000Y54610000D03*
X39940000Y54610000D03*
X39940000Y57150000D03*
X39940000Y59690000D03*
X39940000Y62230000D03*
X39940000Y64770000D03*
X39940000Y67310000D03*
X39940000Y69850000D03*
X39940000Y72390000D03*
%TD*%
D14*
%TO.C,C14*%
X24550000Y48260000D03*
X26250000Y48260000D03*
%TD*%
D20*
%TO.C,R6*%
X101600000Y49110000D03*
X101600000Y47410000D03*
%TD*%
D24*
%TO.C,U1*%
X91440000Y69840000D03*
D25*
X88900000Y69840000D03*
X86360000Y69840000D03*
X83820000Y69840000D03*
X81280000Y69840000D03*
X78740000Y69840000D03*
X76200000Y69840000D03*
X73660000Y69840000D03*
X71120000Y69840000D03*
X68580000Y69840000D03*
X66040000Y69840000D03*
X63500000Y69840000D03*
X60960000Y69840000D03*
X58420000Y69840000D03*
X58420000Y62220000D03*
X60960000Y62220000D03*
X63500000Y62220000D03*
X66040000Y62220000D03*
X68580000Y62220000D03*
X71120000Y62220000D03*
X73660000Y62220000D03*
X76200000Y62220000D03*
X78740000Y62220000D03*
X81280000Y62220000D03*
X83820000Y62220000D03*
X86360000Y62220000D03*
X88900000Y62220000D03*
X91440000Y62220000D03*
%TD*%
D20*
%TO.C,C8*%
X66040000Y79590000D03*
X66040000Y77890000D03*
%TD*%
D16*
%TO.C,H2*%
X136260000Y84780000D03*
%TD*%
%TO.C,H3*%
X6260000Y4780000D03*
%TD*%
D14*
%TO.C,R21*%
X77050000Y10160000D03*
X75350000Y10160000D03*
%TD*%
D27*
%TO.C,BT1*%
X16326314Y17779983D03*
D28*
X36816314Y17779983D03*
%TD*%
D29*
%TO.C,U2*%
X126740000Y16900000D03*
D30*
X124460000Y10600000D03*
D29*
X122180000Y16900000D03*
%TD*%
D20*
%TO.C,R1*%
X93980000Y79590000D03*
X93980000Y77890000D03*
%TD*%
D16*
%TO.C,H1*%
X6260000Y84780000D03*
%TD*%
D31*
%TO.C,DS5*%
X66040000Y35560000D03*
D32*
X68580000Y35560000D03*
X71120000Y35560000D03*
X73660000Y35560000D03*
X76200000Y35560000D03*
X78740000Y35560000D03*
X81280000Y35560000D03*
X81280000Y50800000D03*
X78740000Y50800000D03*
X76200000Y50800000D03*
X73660000Y50800000D03*
X71120000Y50800000D03*
X68580000Y50800000D03*
X66040000Y50800000D03*
%TD*%
D33*
%TO.C,SW1*%
X107760000Y58130000D03*
X115760000Y58130000D03*
X107760000Y53630000D03*
X115760000Y53630000D03*
%TD*%
D18*
%TO.C,J5*%
X86360000Y83820000D03*
D19*
X88900000Y83820000D03*
X86360000Y81280000D03*
X88900000Y81280000D03*
X86360000Y78740000D03*
X88900000Y78740000D03*
%TD*%
D20*
%TO.C,R17*%
X132080000Y34710000D03*
X132080000Y36410000D03*
%TD*%
D24*
%TO.C,U6*%
X90175000Y24120000D03*
D25*
X87635000Y24120000D03*
X85095000Y24120000D03*
X82555000Y24120000D03*
X80015000Y24120000D03*
X77475000Y24120000D03*
X74935000Y24120000D03*
X72395000Y24120000D03*
X69855000Y24120000D03*
X67315000Y24120000D03*
X64775000Y24120000D03*
X62235000Y24120000D03*
X62235000Y16500000D03*
X64775000Y16500000D03*
X67315000Y16500000D03*
X69855000Y16500000D03*
X72395000Y16500000D03*
X74935000Y16500000D03*
X77475000Y16500000D03*
X80015000Y16500000D03*
X82555000Y16500000D03*
X85095000Y16500000D03*
X87635000Y16500000D03*
X90175000Y16500000D03*
%TD*%
D14*
%TO.C,C17*%
X77890000Y7620000D03*
X79590000Y7620000D03*
%TD*%
D17*
%TO.C,TP1*%
X82310000Y12700000D03*
%TD*%
D33*
%TO.C,SW2*%
X97600000Y83530000D03*
X105600000Y83530000D03*
X97600000Y79030000D03*
X105600000Y79030000D03*
%TD*%
D14*
%TO.C,R5*%
X104990000Y55880000D03*
X103290000Y55880000D03*
%TD*%
%TO.C,R13*%
X112610000Y71120000D03*
X110910000Y71120000D03*
%TD*%
D33*
%TO.C,SW3*%
X49340000Y83530000D03*
X57340000Y83530000D03*
X49340000Y79030000D03*
X57340000Y79030000D03*
%TD*%
D17*
%TO.C,TP4*%
X127000000Y48260000D03*
%TD*%
D20*
%TO.C,C12*%
X134620000Y14390000D03*
X134620000Y16090000D03*
%TD*%
D17*
%TO.C,TP2*%
X86360000Y12700000D03*
%TD*%
D24*
%TO.C,U4*%
X12700000Y34300000D03*
D25*
X15240000Y34300000D03*
X17780000Y34300000D03*
X20320000Y34300000D03*
X22860000Y34300000D03*
X25400000Y34300000D03*
X27940000Y34300000D03*
X30480000Y34300000D03*
X33020000Y34300000D03*
X35560000Y34300000D03*
X38100000Y34300000D03*
X40640000Y34300000D03*
X40640000Y41920000D03*
X38100000Y41920000D03*
X35560000Y41920000D03*
X33020000Y41920000D03*
X30480000Y41920000D03*
X27940000Y41920000D03*
X25400000Y41920000D03*
X22860000Y41920000D03*
X20320000Y41920000D03*
X17780000Y41920000D03*
X15240000Y41920000D03*
X12700000Y41920000D03*
%TD*%
D20*
%TO.C,C1*%
X116840000Y11850000D03*
X116840000Y13550000D03*
%TD*%
D14*
%TO.C,R12*%
X112610000Y68580000D03*
X110910000Y68580000D03*
%TD*%
%TO.C,R10*%
X16930000Y30480000D03*
X18630000Y30480000D03*
%TD*%
D20*
%TO.C,R16*%
X137160000Y44030000D03*
X137160000Y42330000D03*
%TD*%
D34*
%TO.C,J2*%
X112720000Y15240000D03*
D35*
X110420000Y9940000D03*
X106720000Y12440000D03*
%TD*%
M02*
