%TF.GenerationSoftware,KiCad,Pcbnew,(6.0.5-0)*%
%TF.CreationDate,2022-07-21T14:46:48-07:00*%
%TF.ProjectId,MartincitoClock,4d617274-696e-4636-9974-6f436c6f636b,rev?*%
%TF.SameCoordinates,PX4b17a20PY8a12ae0*%
%TF.FileFunction,Legend,Bot*%
%TF.FilePolarity,Positive*%
%FSLAX46Y46*%
G04 Gerber Fmt 4.6, Leading zero omitted, Abs format (unit mm)*
G04 Created by KiCad (PCBNEW (6.0.5-0)) date 2022-07-21 14:46:48*
%MOMM*%
%LPD*%
G01*
G04 APERTURE LIST*
G04 Aperture macros list*
%AMRoundRect*
0 Rectangle with rounded corners*
0 $1 Rounding radius*
0 $2 $3 $4 $5 $6 $7 $8 $9 X,Y pos of 4 corners*
0 Add a 4 corners polygon primitive as box body*
4,1,4,$2,$3,$4,$5,$6,$7,$8,$9,$2,$3,0*
0 Add four circle primitives for the rounded corners*
1,1,$1+$1,$2,$3*
1,1,$1+$1,$4,$5*
1,1,$1+$1,$6,$7*
1,1,$1+$1,$8,$9*
0 Add four rect primitives between the rounded corners*
20,1,$1+$1,$2,$3,$4,$5,0*
20,1,$1+$1,$4,$5,$6,$7,0*
20,1,$1+$1,$6,$7,$8,$9,0*
20,1,$1+$1,$8,$9,$2,$3,0*%
G04 Aperture macros list end*
%ADD10C,0.300000*%
%ADD11C,0.150000*%
%ADD12C,0.120000*%
%ADD13C,3.200000*%
%ADD14C,2.000000*%
%ADD15R,1.700000X1.700000*%
%ADD16O,1.700000X1.700000*%
%ADD17R,1.600000X1.600000*%
%ADD18O,1.600000X1.600000*%
%ADD19C,1.524000*%
%ADD20R,3.000000X3.000000*%
%ADD21C,3.000000*%
%ADD22R,1.400000X1.400000*%
%ADD23C,1.400000*%
%ADD24RoundRect,0.500000X0.500000X-1.750000X0.500000X1.750000X-0.500000X1.750000X-0.500000X-1.750000X0*%
%ADD25RoundRect,0.500000X1.500000X0.500000X-1.500000X0.500000X-1.500000X-0.500000X1.500000X-0.500000X0*%
G04 APERTURE END LIST*
D10*
X88057142Y72981429D02*
X88057142Y74481429D01*
X87557142Y73410000D01*
X87057142Y74481429D01*
X87057142Y72981429D01*
X85700000Y72981429D02*
X85700000Y73767143D01*
X85771428Y73910000D01*
X85914285Y73981429D01*
X86200000Y73981429D01*
X86342857Y73910000D01*
X85700000Y73052858D02*
X85842857Y72981429D01*
X86200000Y72981429D01*
X86342857Y73052858D01*
X86414285Y73195715D01*
X86414285Y73338572D01*
X86342857Y73481429D01*
X86200000Y73552858D01*
X85842857Y73552858D01*
X85700000Y73624286D01*
X84985714Y72981429D02*
X84985714Y73981429D01*
X84985714Y73695715D02*
X84914285Y73838572D01*
X84842857Y73910000D01*
X84700000Y73981429D01*
X84557142Y73981429D01*
X84271428Y73981429D02*
X83700000Y73981429D01*
X84057142Y74481429D02*
X84057142Y73195715D01*
X83985714Y73052858D01*
X83842857Y72981429D01*
X83700000Y72981429D01*
X83200000Y72981429D02*
X83200000Y73981429D01*
X83200000Y74481429D02*
X83271428Y74410000D01*
X83200000Y74338572D01*
X83128571Y74410000D01*
X83200000Y74481429D01*
X83200000Y74338572D01*
X82485714Y73981429D02*
X82485714Y72981429D01*
X82485714Y73838572D02*
X82414285Y73910000D01*
X82271428Y73981429D01*
X82057142Y73981429D01*
X81914285Y73910000D01*
X81842857Y73767143D01*
X81842857Y72981429D01*
X79985714Y72981429D02*
X79985714Y74481429D01*
X79485714Y73410000D01*
X78985714Y74481429D01*
X78985714Y72981429D01*
X77700000Y73052858D02*
X77842857Y72981429D01*
X78128571Y72981429D01*
X78271428Y73052858D01*
X78342857Y73195715D01*
X78342857Y73767143D01*
X78271428Y73910000D01*
X78128571Y73981429D01*
X77842857Y73981429D01*
X77700000Y73910000D01*
X77628571Y73767143D01*
X77628571Y73624286D01*
X78342857Y73481429D01*
X76985714Y73981429D02*
X76985714Y72695715D01*
X77057142Y72552858D01*
X77200000Y72481429D01*
X77271428Y72481429D01*
X76985714Y74481429D02*
X77057142Y74410000D01*
X76985714Y74338572D01*
X76914285Y74410000D01*
X76985714Y74481429D01*
X76985714Y74338572D01*
X76271428Y72981429D02*
X76271428Y73981429D01*
X76271428Y74481429D02*
X76342857Y74410000D01*
X76271428Y74338572D01*
X76200000Y74410000D01*
X76271428Y74481429D01*
X76271428Y74338572D01*
X74914285Y72981429D02*
X74914285Y73767143D01*
X74985714Y73910000D01*
X75128571Y73981429D01*
X75414285Y73981429D01*
X75557142Y73910000D01*
X74914285Y73052858D02*
X75057142Y72981429D01*
X75414285Y72981429D01*
X75557142Y73052858D01*
X75628571Y73195715D01*
X75628571Y73338572D01*
X75557142Y73481429D01*
X75414285Y73552858D01*
X75057142Y73552858D01*
X74914285Y73624286D01*
X73057142Y72981429D02*
X73057142Y74481429D01*
X72557142Y73410000D01*
X72057142Y74481429D01*
X72057142Y72981429D01*
X70700000Y72981429D02*
X70700000Y73767143D01*
X70771428Y73910000D01*
X70914285Y73981429D01*
X71200000Y73981429D01*
X71342857Y73910000D01*
X70700000Y73052858D02*
X70842857Y72981429D01*
X71200000Y72981429D01*
X71342857Y73052858D01*
X71414285Y73195715D01*
X71414285Y73338572D01*
X71342857Y73481429D01*
X71200000Y73552858D01*
X70842857Y73552858D01*
X70700000Y73624286D01*
X69985714Y72981429D02*
X69985714Y73981429D01*
X69985714Y73695715D02*
X69914285Y73838572D01*
X69842857Y73910000D01*
X69700000Y73981429D01*
X69557142Y73981429D01*
X69271428Y73981429D02*
X68700000Y73981429D01*
X69057142Y74481429D02*
X69057142Y73195715D01*
X68985714Y73052858D01*
X68842857Y72981429D01*
X68700000Y72981429D01*
X68200000Y72981429D02*
X68200000Y73981429D01*
X68200000Y74481429D02*
X68271428Y74410000D01*
X68200000Y74338572D01*
X68128571Y74410000D01*
X68200000Y74481429D01*
X68200000Y74338572D01*
X67485714Y73981429D02*
X67485714Y72981429D01*
X67485714Y73838572D02*
X67414285Y73910000D01*
X67271428Y73981429D01*
X67057142Y73981429D01*
X66914285Y73910000D01*
X66842857Y73767143D01*
X66842857Y72981429D01*
X65557142Y73052858D02*
X65700000Y72981429D01*
X65985714Y72981429D01*
X66128571Y73052858D01*
X66200000Y73195715D01*
X66200000Y73767143D01*
X66128571Y73910000D01*
X65985714Y73981429D01*
X65700000Y73981429D01*
X65557142Y73910000D01*
X65485714Y73767143D01*
X65485714Y73624286D01*
X66200000Y73481429D01*
X64985714Y73981429D02*
X64200000Y73981429D01*
X64985714Y72981429D01*
X64200000Y72981429D01*
D11*
%TO.C,J2*%
X109553333Y20787620D02*
X109553333Y20073334D01*
X109600952Y19930477D01*
X109696190Y19835239D01*
X109839047Y19787620D01*
X109934285Y19787620D01*
X109124761Y20692381D02*
X109077142Y20740000D01*
X108981904Y20787620D01*
X108743809Y20787620D01*
X108648571Y20740000D01*
X108600952Y20692381D01*
X108553333Y20597143D01*
X108553333Y20501905D01*
X108600952Y20359048D01*
X109172380Y19787620D01*
X108553333Y19787620D01*
%TO.C,D2*%
X16940000Y72390000D02*
G75*
G03*
X16940000Y72390000I-1000000J0D01*
G01*
D12*
%TO.C,J2*%
X113720000Y8740000D02*
X113720000Y12990000D01*
X104720000Y8740000D02*
X104720000Y11490000D01*
X104720000Y19440000D02*
X104720000Y13490000D01*
X113720000Y8740000D02*
X104720000Y8740000D01*
X113720000Y19440000D02*
X113720000Y17490000D01*
X113720000Y19440000D02*
X104720000Y19440000D01*
X111420000Y17540000D02*
G75*
G03*
X106353755Y13856295I-2200000J-2300000D01*
G01*
X109220000Y12040000D02*
G75*
G03*
X111482742Y12977258I2J3199997D01*
G01*
%TD*%
%LPC*%
D13*
%TO.C,H4*%
X136260000Y4780000D03*
%TD*%
D14*
%TO.C,TP3*%
X132080000Y48260000D03*
%TD*%
D15*
%TO.C,J1*%
X132080000Y67310000D03*
D16*
X132080000Y64770000D03*
X132080000Y62230000D03*
X132080000Y59690000D03*
X132080000Y57150000D03*
X132080000Y54610000D03*
%TD*%
D17*
%TO.C,U3*%
X115580000Y46980000D03*
D18*
X115580000Y44440000D03*
X115580000Y41900000D03*
X115580000Y39360000D03*
X123200000Y39360000D03*
X123200000Y41900000D03*
X123200000Y44440000D03*
X123200000Y46980000D03*
%TD*%
D19*
%TO.C,D2*%
X15940000Y72390000D03*
X15940000Y69850000D03*
X15940000Y67310000D03*
X15940000Y64770000D03*
X15940000Y62230000D03*
X15940000Y59690000D03*
X15940000Y57150000D03*
X15940000Y54610000D03*
X39940000Y54610000D03*
X39940000Y57150000D03*
X39940000Y59690000D03*
X39940000Y62230000D03*
X39940000Y64770000D03*
X39940000Y67310000D03*
X39940000Y69850000D03*
X39940000Y72390000D03*
%TD*%
D17*
%TO.C,U1*%
X91440000Y69840000D03*
D18*
X88900000Y69840000D03*
X86360000Y69840000D03*
X83820000Y69840000D03*
X81280000Y69840000D03*
X78740000Y69840000D03*
X76200000Y69840000D03*
X73660000Y69840000D03*
X71120000Y69840000D03*
X68580000Y69840000D03*
X66040000Y69840000D03*
X63500000Y69840000D03*
X60960000Y69840000D03*
X58420000Y69840000D03*
X58420000Y62220000D03*
X60960000Y62220000D03*
X63500000Y62220000D03*
X66040000Y62220000D03*
X68580000Y62220000D03*
X71120000Y62220000D03*
X73660000Y62220000D03*
X76200000Y62220000D03*
X78740000Y62220000D03*
X81280000Y62220000D03*
X83820000Y62220000D03*
X86360000Y62220000D03*
X88900000Y62220000D03*
X91440000Y62220000D03*
%TD*%
D13*
%TO.C,H2*%
X136260000Y84780000D03*
%TD*%
%TO.C,H3*%
X6260000Y4780000D03*
%TD*%
D20*
%TO.C,BT1*%
X16326314Y17779983D03*
D21*
X36816314Y17779983D03*
%TD*%
D13*
%TO.C,H1*%
X6260000Y84780000D03*
%TD*%
D22*
%TO.C,DS5*%
X66040000Y35560000D03*
D23*
X68580000Y35560000D03*
X71120000Y35560000D03*
X73660000Y35560000D03*
X76200000Y35560000D03*
X78740000Y35560000D03*
X81280000Y35560000D03*
X81280000Y50800000D03*
X78740000Y50800000D03*
X76200000Y50800000D03*
X73660000Y50800000D03*
X71120000Y50800000D03*
X68580000Y50800000D03*
X66040000Y50800000D03*
%TD*%
D15*
%TO.C,J5*%
X86360000Y83820000D03*
D16*
X88900000Y83820000D03*
X86360000Y81280000D03*
X88900000Y81280000D03*
X86360000Y78740000D03*
X88900000Y78740000D03*
%TD*%
D17*
%TO.C,U6*%
X90175000Y24120000D03*
D18*
X87635000Y24120000D03*
X85095000Y24120000D03*
X82555000Y24120000D03*
X80015000Y24120000D03*
X77475000Y24120000D03*
X74935000Y24120000D03*
X72395000Y24120000D03*
X69855000Y24120000D03*
X67315000Y24120000D03*
X64775000Y24120000D03*
X62235000Y24120000D03*
X62235000Y16500000D03*
X64775000Y16500000D03*
X67315000Y16500000D03*
X69855000Y16500000D03*
X72395000Y16500000D03*
X74935000Y16500000D03*
X77475000Y16500000D03*
X80015000Y16500000D03*
X82555000Y16500000D03*
X85095000Y16500000D03*
X87635000Y16500000D03*
X90175000Y16500000D03*
%TD*%
D14*
%TO.C,TP1*%
X82310000Y12700000D03*
%TD*%
%TO.C,TP4*%
X127000000Y48260000D03*
%TD*%
%TO.C,TP2*%
X86360000Y12700000D03*
%TD*%
D17*
%TO.C,U4*%
X12700000Y34300000D03*
D18*
X15240000Y34300000D03*
X17780000Y34300000D03*
X20320000Y34300000D03*
X22860000Y34300000D03*
X25400000Y34300000D03*
X27940000Y34300000D03*
X30480000Y34300000D03*
X33020000Y34300000D03*
X35560000Y34300000D03*
X38100000Y34300000D03*
X40640000Y34300000D03*
X40640000Y41920000D03*
X38100000Y41920000D03*
X35560000Y41920000D03*
X33020000Y41920000D03*
X30480000Y41920000D03*
X27940000Y41920000D03*
X25400000Y41920000D03*
X22860000Y41920000D03*
X20320000Y41920000D03*
X17780000Y41920000D03*
X15240000Y41920000D03*
X12700000Y41920000D03*
%TD*%
D24*
%TO.C,J2*%
X112720000Y15240000D03*
D25*
X110420000Y9940000D03*
X106720000Y12440000D03*
%TD*%
M02*
