%TF.GenerationSoftware,KiCad,Pcbnew,(6.0.5-0)*%
%TF.CreationDate,2022-07-23T11:30:03-07:00*%
%TF.ProjectId,MartincitoClock,4d617274-696e-4636-9974-6f436c6f636b,rev?*%
%TF.SameCoordinates,PX4b17a20PY8a12ae0*%
%TF.FileFunction,Legend,Bot*%
%TF.FilePolarity,Positive*%
%FSLAX46Y46*%
G04 Gerber Fmt 4.6, Leading zero omitted, Abs format (unit mm)*
G04 Created by KiCad (PCBNEW (6.0.5-0)) date 2022-07-23 11:30:03*
%MOMM*%
%LPD*%
G01*
G04 APERTURE LIST*
G04 Aperture macros list*
%AMRoundRect*
0 Rectangle with rounded corners*
0 $1 Rounding radius*
0 $2 $3 $4 $5 $6 $7 $8 $9 X,Y pos of 4 corners*
0 Add a 4 corners polygon primitive as box body*
4,1,4,$2,$3,$4,$5,$6,$7,$8,$9,$2,$3,0*
0 Add four circle primitives for the rounded corners*
1,1,$1+$1,$2,$3*
1,1,$1+$1,$4,$5*
1,1,$1+$1,$6,$7*
1,1,$1+$1,$8,$9*
0 Add four rect primitives between the rounded corners*
20,1,$1+$1,$2,$3,$4,$5,0*
20,1,$1+$1,$4,$5,$6,$7,0*
20,1,$1+$1,$6,$7,$8,$9,0*
20,1,$1+$1,$8,$9,$2,$3,0*%
G04 Aperture macros list end*
%ADD10C,0.300000*%
%ADD11C,0.150000*%
%ADD12C,0.120000*%
%ADD13C,1.400000*%
%ADD14R,1.400000X1.400000*%
%ADD15R,1.600000X1.600000*%
%ADD16O,1.600000X1.600000*%
%ADD17R,3.000000X3.000000*%
%ADD18C,3.000000*%
%ADD19C,1.524000*%
%ADD20C,3.200000*%
%ADD21R,1.700000X1.700000*%
%ADD22O,1.700000X1.700000*%
%ADD23RoundRect,0.500000X0.500000X-1.750000X0.500000X1.750000X-0.500000X1.750000X-0.500000X-1.750000X0*%
%ADD24RoundRect,0.500000X1.500000X0.500000X-1.500000X0.500000X-1.500000X-0.500000X1.500000X-0.500000X0*%
G04 APERTURE END LIST*
D10*
X39797142Y80601429D02*
X39797142Y82101429D01*
X39297142Y81030000D01*
X38797142Y82101429D01*
X38797142Y80601429D01*
X37440000Y80601429D02*
X37440000Y81387143D01*
X37511428Y81530000D01*
X37654285Y81601429D01*
X37940000Y81601429D01*
X38082857Y81530000D01*
X37440000Y80672858D02*
X37582857Y80601429D01*
X37940000Y80601429D01*
X38082857Y80672858D01*
X38154285Y80815715D01*
X38154285Y80958572D01*
X38082857Y81101429D01*
X37940000Y81172858D01*
X37582857Y81172858D01*
X37440000Y81244286D01*
X36725714Y80601429D02*
X36725714Y81601429D01*
X36725714Y81315715D02*
X36654285Y81458572D01*
X36582857Y81530000D01*
X36440000Y81601429D01*
X36297142Y81601429D01*
X36011428Y81601429D02*
X35440000Y81601429D01*
X35797142Y82101429D02*
X35797142Y80815715D01*
X35725714Y80672858D01*
X35582857Y80601429D01*
X35440000Y80601429D01*
X34940000Y80601429D02*
X34940000Y81601429D01*
X34940000Y82101429D02*
X35011428Y82030000D01*
X34940000Y81958572D01*
X34868571Y82030000D01*
X34940000Y82101429D01*
X34940000Y81958572D01*
X34225714Y81601429D02*
X34225714Y80601429D01*
X34225714Y81458572D02*
X34154285Y81530000D01*
X34011428Y81601429D01*
X33797142Y81601429D01*
X33654285Y81530000D01*
X33582857Y81387143D01*
X33582857Y80601429D01*
X31725714Y80601429D02*
X31725714Y82101429D01*
X31225714Y81030000D01*
X30725714Y82101429D01*
X30725714Y80601429D01*
X29440000Y80672858D02*
X29582857Y80601429D01*
X29868571Y80601429D01*
X30011428Y80672858D01*
X30082857Y80815715D01*
X30082857Y81387143D01*
X30011428Y81530000D01*
X29868571Y81601429D01*
X29582857Y81601429D01*
X29440000Y81530000D01*
X29368571Y81387143D01*
X29368571Y81244286D01*
X30082857Y81101429D01*
X28725714Y81601429D02*
X28725714Y80315715D01*
X28797142Y80172858D01*
X28940000Y80101429D01*
X29011428Y80101429D01*
X28725714Y82101429D02*
X28797142Y82030000D01*
X28725714Y81958572D01*
X28654285Y82030000D01*
X28725714Y82101429D01*
X28725714Y81958572D01*
X28011428Y80601429D02*
X28011428Y81601429D01*
X28011428Y82101429D02*
X28082857Y82030000D01*
X28011428Y81958572D01*
X27940000Y82030000D01*
X28011428Y82101429D01*
X28011428Y81958572D01*
X26654285Y80601429D02*
X26654285Y81387143D01*
X26725714Y81530000D01*
X26868571Y81601429D01*
X27154285Y81601429D01*
X27297142Y81530000D01*
X26654285Y80672858D02*
X26797142Y80601429D01*
X27154285Y80601429D01*
X27297142Y80672858D01*
X27368571Y80815715D01*
X27368571Y80958572D01*
X27297142Y81101429D01*
X27154285Y81172858D01*
X26797142Y81172858D01*
X26654285Y81244286D01*
X24797142Y80601429D02*
X24797142Y82101429D01*
X24297142Y81030000D01*
X23797142Y82101429D01*
X23797142Y80601429D01*
X22440000Y80601429D02*
X22440000Y81387143D01*
X22511428Y81530000D01*
X22654285Y81601429D01*
X22940000Y81601429D01*
X23082857Y81530000D01*
X22440000Y80672858D02*
X22582857Y80601429D01*
X22940000Y80601429D01*
X23082857Y80672858D01*
X23154285Y80815715D01*
X23154285Y80958572D01*
X23082857Y81101429D01*
X22940000Y81172858D01*
X22582857Y81172858D01*
X22440000Y81244286D01*
X21725714Y80601429D02*
X21725714Y81601429D01*
X21725714Y81315715D02*
X21654285Y81458572D01*
X21582857Y81530000D01*
X21440000Y81601429D01*
X21297142Y81601429D01*
X21011428Y81601429D02*
X20440000Y81601429D01*
X20797142Y82101429D02*
X20797142Y80815715D01*
X20725714Y80672858D01*
X20582857Y80601429D01*
X20440000Y80601429D01*
X19940000Y80601429D02*
X19940000Y81601429D01*
X19940000Y82101429D02*
X20011428Y82030000D01*
X19940000Y81958572D01*
X19868571Y82030000D01*
X19940000Y82101429D01*
X19940000Y81958572D01*
X19225714Y81601429D02*
X19225714Y80601429D01*
X19225714Y81458572D02*
X19154285Y81530000D01*
X19011428Y81601429D01*
X18797142Y81601429D01*
X18654285Y81530000D01*
X18582857Y81387143D01*
X18582857Y80601429D01*
X17297142Y80672858D02*
X17440000Y80601429D01*
X17725714Y80601429D01*
X17868571Y80672858D01*
X17940000Y80815715D01*
X17940000Y81387143D01*
X17868571Y81530000D01*
X17725714Y81601429D01*
X17440000Y81601429D01*
X17297142Y81530000D01*
X17225714Y81387143D01*
X17225714Y81244286D01*
X17940000Y81101429D01*
X16725714Y81601429D02*
X15940000Y81601429D01*
X16725714Y80601429D01*
X15940000Y80601429D01*
D11*
%TO.C,J2*%
X109553333Y20787620D02*
X109553333Y20073334D01*
X109600952Y19930477D01*
X109696190Y19835239D01*
X109839047Y19787620D01*
X109934285Y19787620D01*
X109124761Y20692381D02*
X109077142Y20740000D01*
X108981904Y20787620D01*
X108743809Y20787620D01*
X108648571Y20740000D01*
X108600952Y20692381D01*
X108553333Y20597143D01*
X108553333Y20501905D01*
X108600952Y20359048D01*
X109172380Y19787620D01*
X108553333Y19787620D01*
%TO.C,D2*%
X16940000Y72390000D02*
G75*
G03*
X16940000Y72390000I-1000000J0D01*
G01*
D12*
%TO.C,J2*%
X113720000Y8740000D02*
X113720000Y12990000D01*
X104720000Y8740000D02*
X104720000Y11490000D01*
X104720000Y19440000D02*
X104720000Y13490000D01*
X113720000Y8740000D02*
X104720000Y8740000D01*
X113720000Y19440000D02*
X113720000Y17490000D01*
X113720000Y19440000D02*
X104720000Y19440000D01*
X111420000Y17540000D02*
G75*
G03*
X106353755Y13856295I-2200000J-2300000D01*
G01*
X109220000Y12040000D02*
G75*
G03*
X111482742Y12977258I2J3199997D01*
G01*
%TD*%
%LPC*%
D13*
%TO.C,DS5*%
X66040000Y50800000D03*
X68580000Y50800000D03*
X71120000Y50800000D03*
X73660000Y50800000D03*
X76200000Y50800000D03*
X78740000Y50800000D03*
X81280000Y50800000D03*
X81280000Y35560000D03*
X78740000Y35560000D03*
X76200000Y35560000D03*
X73660000Y35560000D03*
X71120000Y35560000D03*
X68580000Y35560000D03*
D14*
X66040000Y35560000D03*
%TD*%
D15*
%TO.C,U6*%
X90175000Y24120000D03*
D16*
X87635000Y24120000D03*
X85095000Y24120000D03*
X82555000Y24120000D03*
X80015000Y24120000D03*
X77475000Y24120000D03*
X74935000Y24120000D03*
X72395000Y24120000D03*
X69855000Y24120000D03*
X67315000Y24120000D03*
X64775000Y24120000D03*
X62235000Y24120000D03*
X62235000Y16500000D03*
X64775000Y16500000D03*
X67315000Y16500000D03*
X69855000Y16500000D03*
X72395000Y16500000D03*
X74935000Y16500000D03*
X77475000Y16500000D03*
X80015000Y16500000D03*
X82555000Y16500000D03*
X85095000Y16500000D03*
X87635000Y16500000D03*
X90175000Y16500000D03*
%TD*%
D17*
%TO.C,BT1*%
X16326314Y17779983D03*
D18*
X36816314Y17779983D03*
%TD*%
D19*
%TO.C,D2*%
X15940000Y72390000D03*
X15940000Y69850000D03*
X15940000Y67310000D03*
X15940000Y64770000D03*
X15940000Y62230000D03*
X15940000Y59690000D03*
X15940000Y57150000D03*
X15940000Y54610000D03*
X39940000Y54610000D03*
X39940000Y57150000D03*
X39940000Y59690000D03*
X39940000Y62230000D03*
X39940000Y64770000D03*
X39940000Y67310000D03*
X39940000Y69850000D03*
X39940000Y72390000D03*
%TD*%
D20*
%TO.C,H4*%
X136260000Y4780000D03*
%TD*%
D21*
%TO.C,J1*%
X132080000Y67310000D03*
D22*
X132080000Y64770000D03*
X132080000Y62230000D03*
X132080000Y59690000D03*
X132080000Y57150000D03*
X132080000Y54610000D03*
%TD*%
D15*
%TO.C,U3*%
X115580000Y46980000D03*
D16*
X115580000Y44440000D03*
X115580000Y41900000D03*
X115580000Y39360000D03*
X123200000Y39360000D03*
X123200000Y41900000D03*
X123200000Y44440000D03*
X123200000Y46980000D03*
%TD*%
D15*
%TO.C,U1*%
X91440000Y69840000D03*
D16*
X88900000Y69840000D03*
X86360000Y69840000D03*
X83820000Y69840000D03*
X81280000Y69840000D03*
X78740000Y69840000D03*
X76200000Y69840000D03*
X73660000Y69840000D03*
X71120000Y69840000D03*
X68580000Y69840000D03*
X66040000Y69840000D03*
X63500000Y69840000D03*
X60960000Y69840000D03*
X58420000Y69840000D03*
X58420000Y62220000D03*
X60960000Y62220000D03*
X63500000Y62220000D03*
X66040000Y62220000D03*
X68580000Y62220000D03*
X71120000Y62220000D03*
X73660000Y62220000D03*
X76200000Y62220000D03*
X78740000Y62220000D03*
X81280000Y62220000D03*
X83820000Y62220000D03*
X86360000Y62220000D03*
X88900000Y62220000D03*
X91440000Y62220000D03*
%TD*%
D20*
%TO.C,H2*%
X136260000Y84780000D03*
%TD*%
%TO.C,H3*%
X6260000Y4780000D03*
%TD*%
%TO.C,H1*%
X6260000Y84780000D03*
%TD*%
D21*
%TO.C,J5*%
X86360000Y83820000D03*
D22*
X88900000Y83820000D03*
X86360000Y81280000D03*
X88900000Y81280000D03*
X86360000Y78740000D03*
X88900000Y78740000D03*
%TD*%
D15*
%TO.C,U4*%
X12700000Y34300000D03*
D16*
X15240000Y34300000D03*
X17780000Y34300000D03*
X20320000Y34300000D03*
X22860000Y34300000D03*
X25400000Y34300000D03*
X27940000Y34300000D03*
X30480000Y34300000D03*
X33020000Y34300000D03*
X35560000Y34300000D03*
X38100000Y34300000D03*
X40640000Y34300000D03*
X40640000Y41920000D03*
X38100000Y41920000D03*
X35560000Y41920000D03*
X33020000Y41920000D03*
X30480000Y41920000D03*
X27940000Y41920000D03*
X25400000Y41920000D03*
X22860000Y41920000D03*
X20320000Y41920000D03*
X17780000Y41920000D03*
X15240000Y41920000D03*
X12700000Y41920000D03*
%TD*%
D23*
%TO.C,J2*%
X112720000Y15240000D03*
D24*
X110420000Y9940000D03*
X106720000Y12440000D03*
%TD*%
M02*
